<svg width="408" height="16" viewBox="0 0 408 16" fill="none" xmlns="http://www.w3.org/2000/svg">
<path d="M8.74 7.8C9.55333 7.97333 10.2067 8.38 10.7 9.02C11.1933 9.64667 11.44 10.3667 11.44 11.18C11.44 12.3533 11.0267 13.2867 10.2 13.98C9.38667 14.66 8.24667 15 6.78 15H0.24V0.96H6.56C7.98667 0.96 9.1 1.28667 9.9 1.94C10.7133 2.59333 11.12 3.48 11.12 4.6C11.12 5.42667 10.9 6.11333 10.46 6.66C10.0333 7.20667 9.46 7.58667 8.74 7.8ZM3.66 6.64H5.9C6.46 6.64 6.88667 6.52 7.18 6.28C7.48667 6.02667 7.64 5.66 7.64 5.18C7.64 4.7 7.48667 4.33333 7.18 4.08C6.88667 3.82667 6.46 3.7 5.9 3.7H3.66V6.64ZM6.18 12.24C6.75333 12.24 7.19333 12.1133 7.5 11.86C7.82 11.5933 7.98 11.2133 7.98 10.72C7.98 10.2267 7.81333 9.84 7.48 9.56C7.16 9.28 6.71333 9.14 6.14 9.14H3.66V12.24H6.18ZM16.8436 3.7V6.54H21.4236V9.18H16.8436V12.26H22.0236V15H13.4236V0.96H22.0236V3.7H16.8436ZM29.3239 15.14C28.2972 15.14 27.3772 14.9733 26.5639 14.64C25.7506 14.3067 25.0972 13.8133 24.6039 13.16C24.1239 12.5067 23.8706 11.72 23.8439 10.8H27.4839C27.5372 11.32 27.7172 11.72 28.0239 12C28.3306 12.2667 28.7306 12.4 29.2239 12.4C29.7306 12.4 30.1306 12.2867 30.4239 12.06C30.7172 11.82 30.8639 11.4933 30.8639 11.08C30.8639 10.7333 30.7439 10.4467 30.5039 10.22C30.2772 9.99333 29.9906 9.80667 29.6439 9.66C29.3106 9.51333 28.8306 9.34667 28.2039 9.16C27.2972 8.88 26.5572 8.6 25.9839 8.32C25.4106 8.04 24.9172 7.62667 24.5039 7.08C24.0906 6.53333 23.8839 5.82 23.8839 4.94C23.8839 3.63333 24.3572 2.61333 25.3039 1.88C26.2506 1.13333 27.4839 0.76 29.0039 0.76C30.5506 0.76 31.7972 1.13333 32.7439 1.88C33.6906 2.61333 34.1972 3.64 34.2639 4.96H30.5639C30.5372 4.50667 30.3706 4.15333 30.0639 3.9C29.7572 3.63333 29.3639 3.5 28.8839 3.5C28.4706 3.5 28.1372 3.61333 27.8839 3.84C27.6306 4.05333 27.5039 4.36667 27.5039 4.78C27.5039 5.23333 27.7172 5.58667 28.1439 5.84C28.5706 6.09333 29.2372 6.36667 30.1439 6.66C31.0506 6.96667 31.7839 7.26 32.3439 7.54C32.9172 7.82 33.4106 8.22667 33.8239 8.76C34.2372 9.29333 34.4439 9.98 34.4439 10.82C34.4439 11.62 34.2372 12.3467 33.8239 13C33.4239 13.6533 32.8372 14.1733 32.0639 14.56C31.2906 14.9467 30.3772 15.14 29.3239 15.14ZM46.6486 0.96V3.7H42.9286V15H39.5086V3.7H35.7886V0.96H46.6486ZM57.8633 0.96C59.3433 0.96 60.6366 1.25333 61.7433 1.84C62.8499 2.42667 63.7033 3.25333 64.3033 4.32C64.9166 5.37333 65.2233 6.59333 65.2233 7.98C65.2233 9.35333 64.9166 10.5733 64.3033 11.64C63.7033 12.7067 62.8433 13.5333 61.7233 14.12C60.6166 14.7067 59.3299 15 57.8633 15H52.6033V0.96H57.8633ZM57.6433 12.04C58.9366 12.04 59.9433 11.6867 60.6633 10.98C61.3833 10.2733 61.7433 9.27333 61.7433 7.98C61.7433 6.68667 61.3833 5.68 60.6633 4.96C59.9433 4.24 58.9366 3.88 57.6433 3.88H56.0233V12.04H57.6433ZM70.5545 3.7V6.54H75.1345V9.18H70.5545V12.26H75.7345V15H67.1345V0.96H75.7345V3.7H70.5545ZM83.0348 15.14C82.0082 15.14 81.0882 14.9733 80.2748 14.64C79.4615 14.3067 78.8082 13.8133 78.3148 13.16C77.8348 12.5067 77.5815 11.72 77.5548 10.8H81.1948C81.2482 11.32 81.4282 11.72 81.7348 12C82.0415 12.2667 82.4415 12.4 82.9348 12.4C83.4415 12.4 83.8415 12.2867 84.1348 12.06C84.4282 11.82 84.5748 11.4933 84.5748 11.08C84.5748 10.7333 84.4548 10.4467 84.2148 10.22C83.9882 9.99333 83.7015 9.80667 83.3548 9.66C83.0215 9.51333 82.5415 9.34667 81.9148 9.16C81.0082 8.88 80.2682 8.6 79.6948 8.32C79.1215 8.04 78.6282 7.62667 78.2148 7.08C77.8015 6.53333 77.5948 5.82 77.5948 4.94C77.5948 3.63333 78.0682 2.61333 79.0148 1.88C79.9615 1.13333 81.1948 0.76 82.7148 0.76C84.2615 0.76 85.5082 1.13333 86.4548 1.88C87.4015 2.61333 87.9082 3.64 87.9748 4.96H84.2748C84.2482 4.50667 84.0815 4.15333 83.7748 3.9C83.4682 3.63333 83.0748 3.5 82.5948 3.5C82.1815 3.5 81.8482 3.61333 81.5948 3.84C81.3415 4.05333 81.2148 4.36667 81.2148 4.78C81.2148 5.23333 81.4282 5.58667 81.8548 5.84C82.2815 6.09333 82.9482 6.36667 83.8548 6.66C84.7615 6.96667 85.4948 7.26 86.0548 7.54C86.6282 7.82 87.1215 8.22667 87.5348 8.76C87.9482 9.29333 88.1548 9.98 88.1548 10.82C88.1548 11.62 87.9482 12.3467 87.5348 13C87.1348 13.6533 86.5482 14.1733 85.7748 14.56C85.0015 14.9467 84.0882 15.14 83.0348 15.14ZM100.36 0.96V3.7H96.6395V15H93.2195V3.7H89.4995V0.96H100.36ZM105.496 0.96V15H102.076V0.96H105.496ZM120.534 15H117.114L111.394 6.34V15H107.974V0.96H111.394L117.114 9.66V0.96H120.534V15ZM131.753 12.52H126.513L125.673 15H122.093L127.173 0.96H131.133L136.213 15H132.593L131.753 12.52ZM130.873 9.88L129.133 4.74L127.413 9.88H130.873ZM147.86 0.96V3.7H144.14V15H140.72V3.7H137V0.96H147.86ZM152.996 0.96V15H149.576V0.96H152.996ZM162.114 15.14C160.794 15.14 159.581 14.8333 158.474 14.22C157.381 13.6067 156.508 12.7533 155.854 11.66C155.214 10.5533 154.894 9.31333 154.894 7.94C154.894 6.56667 155.214 5.33333 155.854 4.24C156.508 3.14667 157.381 2.29333 158.474 1.68C159.581 1.06667 160.794 0.76 162.114 0.76C163.434 0.76 164.641 1.06667 165.734 1.68C166.841 2.29333 167.708 3.14667 168.334 4.24C168.974 5.33333 169.294 6.56667 169.294 7.94C169.294 9.31333 168.974 10.5533 168.334 11.66C167.694 12.7533 166.828 13.6067 165.734 14.22C164.641 14.8333 163.434 15.14 162.114 15.14ZM162.114 12.02C163.234 12.02 164.128 11.6467 164.794 10.9C165.474 10.1533 165.814 9.16667 165.814 7.94C165.814 6.7 165.474 5.71333 164.794 4.98C164.128 4.23333 163.234 3.86 162.114 3.86C160.981 3.86 160.074 4.22667 159.394 4.96C158.728 5.69333 158.394 6.68667 158.394 7.94C158.394 9.18 158.728 10.1733 159.394 10.92C160.074 11.6533 160.981 12.02 162.114 12.02ZM183.757 15H180.337L174.617 6.34V15H171.197V0.96H174.617L180.337 9.66V0.96H183.757V15ZM191.316 15.14C190.289 15.14 189.369 14.9733 188.556 14.64C187.743 14.3067 187.089 13.8133 186.596 13.16C186.116 12.5067 185.863 11.72 185.836 10.8H189.476C189.529 11.32 189.709 11.72 190.016 12C190.323 12.2667 190.723 12.4 191.216 12.4C191.723 12.4 192.123 12.2867 192.416 12.06C192.709 11.82 192.856 11.4933 192.856 11.08C192.856 10.7333 192.736 10.4467 192.496 10.22C192.269 9.99333 191.983 9.80667 191.636 9.66C191.303 9.51333 190.823 9.34667 190.196 9.16C189.289 8.88 188.549 8.6 187.976 8.32C187.403 8.04 186.909 7.62667 186.496 7.08C186.083 6.53333 185.876 5.82 185.876 4.94C185.876 3.63333 186.349 2.61333 187.296 1.88C188.243 1.13333 189.476 0.76 190.996 0.76C192.543 0.76 193.789 1.13333 194.736 1.88C195.683 2.61333 196.189 3.64 196.256 4.96H192.556C192.529 4.50667 192.363 4.15333 192.056 3.9C191.749 3.63333 191.356 3.5 190.876 3.5C190.463 3.5 190.129 3.61333 189.876 3.84C189.623 4.05333 189.496 4.36667 189.496 4.78C189.496 5.23333 189.709 5.58667 190.136 5.84C190.563 6.09333 191.229 6.36667 192.136 6.66C193.043 6.96667 193.776 7.26 194.336 7.54C194.909 7.82 195.403 8.22667 195.816 8.76C196.229 9.29333 196.436 9.98 196.436 10.82C196.436 11.62 196.229 12.3467 195.816 13C195.416 13.6533 194.829 14.1733 194.056 14.56C193.283 14.9467 192.369 15.14 191.316 15.14ZM211.519 12.52H206.279L205.439 15H201.859L206.939 0.96H210.899L215.979 15H212.359L211.519 12.52ZM210.639 9.88L208.899 4.74L207.179 9.88H210.639ZM224.685 15L221.765 9.7H220.945V15H217.525V0.96H223.265C224.372 0.96 225.312 1.15333 226.085 1.54C226.872 1.92667 227.458 2.46 227.845 3.14C228.232 3.80667 228.425 4.55333 228.425 5.38C228.425 6.31333 228.158 7.14667 227.625 7.88C227.105 8.61333 226.332 9.13333 225.305 9.44L228.545 15H224.685ZM220.945 7.28H223.065C223.692 7.28 224.158 7.12667 224.465 6.82C224.785 6.51333 224.945 6.08 224.945 5.52C224.945 4.98667 224.785 4.56667 224.465 4.26C224.158 3.95333 223.692 3.8 223.065 3.8H220.945V7.28ZM237.212 15.14C235.892 15.14 234.679 14.8333 233.572 14.22C232.479 13.6067 231.605 12.7533 230.952 11.66C230.312 10.5533 229.992 9.31333 229.992 7.94C229.992 6.56667 230.312 5.33333 230.952 4.24C231.605 3.14667 232.479 2.29333 233.572 1.68C234.679 1.06667 235.892 0.76 237.212 0.76C238.532 0.76 239.739 1.06667 240.832 1.68C241.939 2.29333 242.805 3.14667 243.432 4.24C244.072 5.33333 244.392 6.56667 244.392 7.94C244.392 9.31333 244.072 10.5533 243.432 11.66C242.792 12.7533 241.925 13.6067 240.832 14.22C239.739 14.8333 238.532 15.14 237.212 15.14ZM237.212 12.02C238.332 12.02 239.225 11.6467 239.892 10.9C240.572 10.1533 240.912 9.16667 240.912 7.94C240.912 6.7 240.572 5.71333 239.892 4.98C239.225 4.23333 238.332 3.86 237.212 3.86C236.079 3.86 235.172 4.22667 234.492 4.96C233.825 5.69333 233.492 6.68667 233.492 7.94C233.492 9.18 233.825 10.1733 234.492 10.92C235.172 11.6533 236.079 12.02 237.212 12.02ZM249.655 0.96V9.36C249.655 10.2 249.861 10.8467 250.275 11.3C250.688 11.7533 251.295 11.98 252.095 11.98C252.895 11.98 253.508 11.7533 253.935 11.3C254.361 10.8467 254.575 10.2 254.575 9.36V0.96H257.995V9.34C257.995 10.5933 257.728 11.6533 257.195 12.52C256.661 13.3867 255.941 14.04 255.035 14.48C254.141 14.92 253.141 15.14 252.035 15.14C250.928 15.14 249.935 14.9267 249.055 14.5C248.188 14.06 247.501 13.4067 246.995 12.54C246.488 11.66 246.235 10.5933 246.235 9.34V0.96H249.655ZM272.956 15H269.536L263.816 6.34V15H260.396V0.96H263.816L269.536 9.66V0.96H272.956V15ZM280.695 0.96C282.175 0.96 283.469 1.25333 284.575 1.84C285.682 2.42667 286.535 3.25333 287.135 4.32C287.749 5.37333 288.055 6.59333 288.055 7.98C288.055 9.35333 287.749 10.5733 287.135 11.64C286.535 12.7067 285.675 13.5333 284.555 14.12C283.449 14.7067 282.162 15 280.695 15H275.435V0.96H280.695ZM280.475 12.04C281.769 12.04 282.775 11.6867 283.495 10.98C284.215 10.2733 284.575 9.27333 284.575 7.98C284.575 6.68667 284.215 5.68 283.495 4.96C282.775 4.24 281.769 3.88 280.475 3.88H278.855V12.04H280.475ZM304.305 0.96V3.7H300.585V15H297.165V3.7H293.445V0.96H304.305ZM318.181 0.96V15H314.761V9.22H309.441V15H306.021V0.96H309.441V6.46H314.761V0.96H318.181ZM324.07 3.7V6.54H328.65V9.18H324.07V12.26H329.25V15H320.65V0.96H329.25V3.7H324.07ZM355.029 0.96L351.369 15H347.229L344.989 5.76L342.669 15H338.529L334.969 0.96H338.629L340.649 11.18L343.149 0.96H346.909L349.309 11.18L351.349 0.96H355.029ZM363.384 15.14C362.064 15.14 360.851 14.8333 359.744 14.22C358.651 13.6067 357.777 12.7533 357.124 11.66C356.484 10.5533 356.164 9.31333 356.164 7.94C356.164 6.56667 356.484 5.33333 357.124 4.24C357.777 3.14667 358.651 2.29333 359.744 1.68C360.851 1.06667 362.064 0.76 363.384 0.76C364.704 0.76 365.911 1.06667 367.004 1.68C368.111 2.29333 368.977 3.14667 369.604 4.24C370.244 5.33333 370.564 6.56667 370.564 7.94C370.564 9.31333 370.244 10.5533 369.604 11.66C368.964 12.7533 368.097 13.6067 367.004 14.22C365.911 14.8333 364.704 15.14 363.384 15.14ZM363.384 12.02C364.504 12.02 365.397 11.6467 366.064 10.9C366.744 10.1533 367.084 9.16667 367.084 7.94C367.084 6.7 366.744 5.71333 366.064 4.98C365.397 4.23333 364.504 3.86 363.384 3.86C362.251 3.86 361.344 4.22667 360.664 4.96C359.997 5.69333 359.664 6.68667 359.664 7.94C359.664 9.18 359.997 10.1733 360.664 10.92C361.344 11.6533 362.251 12.02 363.384 12.02ZM379.627 15L376.707 9.7H375.887V15H372.467V0.96H378.207C379.313 0.96 380.253 1.15333 381.027 1.54C381.813 1.92667 382.4 2.46 382.787 3.14C383.173 3.80667 383.367 4.55333 383.367 5.38C383.367 6.31333 383.1 7.14667 382.567 7.88C382.047 8.61333 381.273 9.13333 380.247 9.44L383.487 15H379.627ZM375.887 7.28H378.007C378.633 7.28 379.1 7.12667 379.407 6.82C379.727 6.51333 379.887 6.08 379.887 5.52C379.887 4.98667 379.727 4.56667 379.407 4.26C379.1 3.95333 378.633 3.8 378.007 3.8H375.887V7.28ZM388.933 12.36H393.413V15H385.513V0.96H388.933V12.36ZM400.305 0.96C401.785 0.96 403.078 1.25333 404.185 1.84C405.291 2.42667 406.145 3.25333 406.745 4.32C407.358 5.37333 407.665 6.59333 407.665 7.98C407.665 9.35333 407.358 10.5733 406.745 11.64C406.145 12.7067 405.285 13.5333 404.165 14.12C403.058 14.7067 401.771 15 400.305 15H395.045V0.96H400.305ZM400.085 12.04C401.378 12.04 402.385 11.6867 403.105 10.98C403.825 10.2733 404.185 9.27333 404.185 7.98C404.185 6.68667 403.825 5.68 403.105 4.96C402.385 4.24 401.378 3.88 400.085 3.88H398.465V12.04H400.085Z" fill="#DF6951"/>
</svg>
