<svg width="544" height="248" viewBox="0 0 544 248" fill="none" xmlns="http://www.w3.org/2000/svg">
<path d="M0.848 27.008V9.2H52.508V27.008H47.384L43.94 15.668H33.524V61.448L41.252 63.296V68H12.104V63.296L19.832 61.448V15.668H9.332L5.888 27.008H0.848ZM52.9569 68V63.548L60.0969 61.868V33.644H52.9569V29.192L66.3969 26H73.0329V31.04C77.2329 26.84 82.2169 24.74 87.9849 24.74C88.3209 25.804 88.4889 26.98 88.4889 28.268C88.4889 30.844 88.2089 33.252 87.6489 35.492L77.0649 33.728C75.7209 34.344 74.3769 35.24 73.0329 36.416V61.868L81.8529 63.548V68H52.9569ZM88.8078 57.584C88.8078 52.712 90.7958 49.016 94.7718 46.496C98.8038 43.92 105.3 42.632 114.26 42.632V40.112C114.26 38.432 114.232 37.228 114.176 36.5C114.176 35.716 114.064 34.792 113.84 33.728C113.616 32.664 113.28 31.908 112.832 31.46C112.44 31.012 111.824 30.62 110.984 30.284C110.144 29.892 109.108 29.696 107.876 29.696L97.2078 38.936C93.3998 36.752 91.4958 33.364 91.4958 28.772L94.0158 27.68C95.0798 27.232 97.1518 26.644 100.232 25.916C103.312 25.132 106.308 24.74 109.22 24.74C121.26 24.74 127.28 29.556 127.28 39.188V61.7H133.832V65.312C133.552 65.592 133.16 65.956 132.656 66.404C132.152 66.852 131.06 67.44 129.38 68.168C127.7 68.896 125.964 69.26 124.172 69.26C119.916 69.26 116.752 67.832 114.68 64.976C110.928 67.832 106.84 69.26 102.416 69.26C98.5518 69.26 95.3038 68.28 92.6718 66.32C90.0958 64.36 88.8078 61.448 88.8078 57.584ZM102.332 56.828C102.332 58.452 102.864 59.74 103.928 60.692C105.048 61.644 106.392 62.12 107.96 62.12C110.48 62.12 112.58 61.196 114.26 59.348V47.84C111.124 47.84 108.352 48.68 105.944 50.36C103.536 51.984 102.332 54.14 102.332 56.828ZM129.268 30.452V26H154.972V30.452L149.26 31.796L157.744 51.872L166.06 31.88L160.516 30.452V26H178.744V30.452L171.688 32.3L156.736 68.588H150.856L135.316 32.216L129.268 30.452ZM176.762 46.496C176.762 39.888 178.61 34.624 182.306 30.704C186.058 26.728 191.126 24.74 197.51 24.74C204.006 24.74 208.906 26.952 212.21 31.376C215.57 35.8 217.25 41.26 217.25 47.756H189.698C190.09 51.9 191.574 55.484 194.15 58.508C196.726 61.476 200.03 62.96 204.062 62.96C207.086 62.96 210.334 62.316 213.806 61.028L215.57 65.816C210.362 68.112 205.266 69.26 200.282 69.26C193.058 69.26 187.318 67.16 183.062 62.96C178.862 58.704 176.762 53.216 176.762 46.496ZM189.698 42.548L203.894 41.624C203.894 40.28 203.81 39.048 203.642 37.928C203.474 36.752 202.998 35.352 202.214 33.728C200.814 31.376 199.162 30.2 197.258 30.2C195.018 30.2 193.17 31.348 191.714 33.644C190.874 35.044 190.314 36.584 190.034 38.264C189.754 39.944 189.642 41.372 189.698 42.548ZM217.495 68V63.548L224.635 61.868V8.444H217.495V3.992L230.935 0.799999H237.571V61.868L244.711 63.548V68H217.495ZM244.67 79.34C247.974 75.924 250.578 72.284 252.482 68.42L245.678 64.136C245.678 61.84 246.434 59.936 247.946 58.424C249.514 56.912 251.334 56.156 253.406 56.156C255.926 56.156 257.858 56.884 259.202 58.34C260.546 59.74 261.218 61.756 261.218 64.388C261.218 67.636 259.846 71.052 257.102 74.636C254.414 78.22 251.586 80.964 248.618 82.868L244.67 79.34ZM279.724 46.496C279.724 39.888 281.572 34.624 285.268 30.704C289.02 26.728 294.088 24.74 300.472 24.74C306.968 24.74 311.868 26.952 315.172 31.376C318.532 35.8 320.212 41.26 320.212 47.756H292.66C293.052 51.9 294.536 55.484 297.112 58.508C299.688 61.476 302.992 62.96 307.024 62.96C310.048 62.96 313.296 62.316 316.768 61.028L318.532 65.816C313.324 68.112 308.228 69.26 303.244 69.26C296.02 69.26 290.28 67.16 286.024 62.96C281.824 58.704 279.724 53.216 279.724 46.496ZM292.66 42.548L306.856 41.624C306.856 40.28 306.772 39.048 306.604 37.928C306.436 36.752 305.96 35.352 305.176 33.728C303.776 31.376 302.124 30.2 300.22 30.2C297.98 30.2 296.132 31.348 294.676 33.644C293.836 35.044 293.276 36.584 292.996 38.264C292.716 39.944 292.604 41.372 292.66 42.548ZM321.718 68V63.548L328.858 61.868V33.644H321.718V29.192L335.158 26H341.794V30.116C345.21 26.532 349.438 24.74 354.478 24.74C356.662 24.74 358.622 25.076 360.358 25.748C362.15 26.364 363.634 27.26 364.81 28.436C366.042 29.612 366.994 31.012 367.666 32.636C368.338 34.26 368.674 36.024 368.674 37.928V61.868L375.814 63.548V68H350.278V63.548L355.738 61.868V40.28C355.738 38.544 355.626 37.144 355.402 36.08C355.234 35.016 354.926 34.204 354.478 33.644C354.03 33.028 353.414 32.636 352.63 32.468C351.902 32.244 350.978 32.132 349.858 32.132C347.73 32.132 345.042 33.364 341.794 35.828V61.868L347.254 63.548V68H321.718ZM372.593 90.008C375.561 87.488 377.773 84.52 379.229 81.104C380.685 77.688 381.413 73.32 381.413 68V33.644H374.273V29.192L387.713 26H394.349V68C394.349 79.2 388.245 88.132 376.037 94.796L372.593 90.008ZM380.069 13.064C380.069 10.88 380.825 9.06 382.337 7.604C383.849 6.092 385.697 5.336 387.881 5.336C390.121 5.336 391.969 6.092 393.425 7.604C394.937 9.06 395.693 10.88 395.693 13.064C395.693 15.304 394.937 17.18 393.425 18.692C391.969 20.204 390.121 20.96 387.881 20.96C385.697 20.96 383.849 20.204 382.337 18.692C380.825 17.18 380.069 15.304 380.069 13.064ZM422.422 69.26C419.23 69.26 416.234 68.7 413.434 67.58C410.69 66.46 408.31 64.92 406.294 62.96C404.278 61 402.682 58.648 401.506 55.904C400.33 53.16 399.742 50.164 399.742 46.916C399.742 43.668 400.33 40.7 401.506 38.012C402.682 35.268 404.278 32.916 406.294 30.956C408.31 28.996 410.69 27.484 413.434 26.42C416.234 25.3 419.23 24.74 422.422 24.74C425.614 24.74 428.582 25.3 431.326 26.42C434.07 27.484 436.45 28.996 438.466 30.956C440.538 32.916 442.134 35.268 443.254 38.012C444.43 40.7 445.018 43.668 445.018 46.916C445.018 50.108 444.43 53.076 443.254 55.82C442.134 58.564 440.538 60.944 438.466 62.96C436.45 64.92 434.07 66.46 431.326 67.58C428.582 68.7 425.614 69.26 422.422 69.26ZM413.266 46.916C413.266 52.18 414.022 56.324 415.534 59.348C417.102 62.316 419.398 63.8 422.422 63.8C425.446 63.8 427.714 62.316 429.226 59.348C430.794 56.324 431.578 52.18 431.578 46.916C431.578 41.708 430.794 37.62 429.226 34.652C427.714 31.684 425.446 30.2 422.422 30.2C419.398 30.2 417.102 31.684 415.534 34.652C414.022 37.62 413.266 41.708 413.266 46.916ZM442.901 30.452V26H468.857V30.452L463.313 31.46L474.149 53.048L482.045 32.048L475.661 30.452V26H495.149V30.452L488.177 32.384L464.741 93.116H463.229C461.549 93.116 459.953 92.752 458.441 92.024C456.985 91.296 455.949 90.4 455.333 89.336L467.513 69.932L449.201 32.216L442.901 30.452ZM1.52 146.584C1.52 141.712 3.508 138.016 7.484 135.496C11.516 132.92 18.012 131.632 26.972 131.632V129.112C26.972 127.432 26.944 126.228 26.888 125.5C26.888 124.716 26.776 123.792 26.552 122.728C26.328 121.664 25.992 120.908 25.544 120.46C25.152 120.012 24.536 119.62 23.696 119.284C22.856 118.892 21.82 118.696 20.588 118.696L9.92 127.936C6.112 125.752 4.208 122.364 4.208 117.772L6.728 116.68C7.792 116.232 9.864 115.644 12.944 114.916C16.024 114.132 19.02 113.74 21.932 113.74C33.972 113.74 39.992 118.556 39.992 128.188V150.7H46.544V154.312C46.264 154.592 45.872 154.956 45.368 155.404C44.864 155.852 43.772 156.44 42.092 157.168C40.412 157.896 38.676 158.26 36.884 158.26C32.628 158.26 29.464 156.832 27.392 153.976C23.64 156.832 19.552 158.26 15.128 158.26C11.264 158.26 8.016 157.28 5.384 155.32C2.808 153.36 1.52 150.448 1.52 146.584ZM15.044 145.828C15.044 147.452 15.576 148.74 16.64 149.692C17.76 150.644 19.104 151.12 20.672 151.12C23.192 151.12 25.292 150.196 26.972 148.348V136.84C23.836 136.84 21.064 137.68 18.656 139.36C16.248 140.984 15.044 143.14 15.044 145.828ZM46.2303 157V152.548L53.3703 150.868V122.644H46.2303V118.192L59.6703 115H66.3063V119.116C69.7223 115.532 73.9503 113.74 78.9903 113.74C81.1743 113.74 83.1343 114.076 84.8703 114.748C86.6623 115.364 88.1463 116.26 89.3223 117.436C90.5543 118.612 91.5063 120.012 92.1783 121.636C92.8503 123.26 93.1863 125.024 93.1863 126.928V150.868L100.326 152.548V157H74.7903V152.548L80.2503 150.868V129.28C80.2503 127.544 80.1383 126.144 79.9143 125.08C79.7463 124.016 79.4383 123.204 78.9903 122.644C78.5423 122.028 77.9263 121.636 77.1423 121.468C76.4143 121.244 75.4903 121.132 74.3703 121.132C72.2423 121.132 69.5543 122.364 66.3063 124.828V150.868L71.7663 152.548V157H46.2303ZM100.466 137.512C100.466 129.952 102.846 124.1 107.606 119.956C112.422 115.812 118.274 113.74 125.162 113.74C126.898 113.74 128.522 113.908 130.034 114.244V97.444H122.894V92.992L136.334 89.8H143.054V150.7H149.606V154.312C149.27 154.592 148.794 154.956 148.178 155.404C147.618 155.852 146.47 156.44 144.734 157.168C142.998 157.896 141.346 158.26 139.778 158.26C137.426 158.26 135.438 157.7 133.814 156.58C132.246 155.46 131.126 154.256 130.454 152.968C127.374 156.496 123.594 158.26 119.114 158.26C114.018 158.26 109.622 156.496 105.926 152.968C102.286 149.384 100.466 144.232 100.466 137.512ZM113.738 137.176C113.738 141.768 114.718 145.24 116.678 147.592C118.694 149.944 120.682 151.12 122.642 151.12C125.442 151.12 127.906 150.084 130.034 148.012V119.788C128.466 119.396 127.094 119.2 125.918 119.2C122.222 119.2 119.254 120.684 117.014 123.652C114.83 126.564 113.738 131.072 113.738 137.176ZM164.007 157V152.548L171.147 150.868V97.444H164.007V92.992L177.447 89.8H184.083V150.868L191.223 152.548V157H164.007ZM191.603 157V152.548L198.743 150.868V122.644H191.603V118.192L205.043 115H211.679V150.868L218.819 152.548V157H191.603ZM197.399 102.064C197.399 99.88 198.155 98.06 199.667 96.604C201.179 95.092 203.027 94.336 205.211 94.336C207.451 94.336 209.299 95.092 210.755 96.604C212.267 98.06 213.023 99.88 213.023 102.064C213.023 104.304 212.267 106.18 210.755 107.692C209.299 109.204 207.451 109.96 205.211 109.96C203.027 109.96 201.179 109.204 199.667 107.692C198.155 106.18 197.399 104.304 197.399 102.064ZM215.492 119.452V115H241.196V119.452L235.484 120.796L243.968 140.872L252.284 120.88L246.74 119.452V115H264.968V119.452L257.912 121.3L242.96 157.588H237.08L221.54 121.216L215.492 119.452ZM262.986 135.496C262.986 128.888 264.834 123.624 268.53 119.704C272.282 115.728 277.35 113.74 283.734 113.74C290.23 113.74 295.13 115.952 298.434 120.376C301.794 124.8 303.474 130.26 303.474 136.756H275.922C276.314 140.9 277.798 144.484 280.374 147.508C282.95 150.476 286.254 151.96 290.286 151.96C293.31 151.96 296.558 151.316 300.03 150.028L301.794 154.816C296.586 157.112 291.49 158.26 286.506 158.26C279.282 158.26 273.542 156.16 269.286 151.96C265.086 147.704 262.986 142.216 262.986 135.496ZM275.922 131.548L290.118 130.624C290.118 129.28 290.034 128.048 289.866 126.928C289.698 125.752 289.222 124.352 288.438 122.728C287.038 120.376 285.386 119.2 283.482 119.2C281.242 119.2 279.394 120.348 277.938 122.644C277.098 124.044 276.538 125.584 276.258 127.264C275.978 128.944 275.866 130.372 275.922 131.548ZM320.323 146.584C320.323 141.712 322.311 138.016 326.287 135.496C330.319 132.92 336.815 131.632 345.775 131.632V129.112C345.775 127.432 345.747 126.228 345.691 125.5C345.691 124.716 345.579 123.792 345.355 122.728C345.131 121.664 344.795 120.908 344.347 120.46C343.955 120.012 343.339 119.62 342.499 119.284C341.659 118.892 340.623 118.696 339.391 118.696L328.723 127.936C324.915 125.752 323.011 122.364 323.011 117.772L325.531 116.68C326.595 116.232 328.667 115.644 331.747 114.916C334.827 114.132 337.823 113.74 340.735 113.74C352.775 113.74 358.795 118.556 358.795 128.188V150.7H365.347V154.312C365.067 154.592 364.675 154.956 364.171 155.404C363.667 155.852 362.575 156.44 360.895 157.168C359.215 157.896 357.479 158.26 355.687 158.26C351.431 158.26 348.267 156.832 346.195 153.976C342.443 156.832 338.355 158.26 333.931 158.26C330.067 158.26 326.819 157.28 324.187 155.32C321.611 153.36 320.323 150.448 320.323 146.584ZM333.847 145.828C333.847 147.452 334.379 148.74 335.443 149.692C336.563 150.644 337.907 151.12 339.475 151.12C341.995 151.12 344.095 150.196 345.775 148.348V136.84C342.639 136.84 339.867 137.68 337.459 139.36C335.051 140.984 333.847 143.14 333.847 145.828ZM380.376 157V152.548L387.516 150.868V122.644H380.376V118.192L393.816 115H400.452V119.116C403.868 115.532 408.096 113.74 413.136 113.74C415.32 113.74 417.28 114.076 419.016 114.748C420.808 115.364 422.292 116.26 423.468 117.436C424.7 118.612 425.652 120.012 426.324 121.636C426.996 123.26 427.332 125.024 427.332 126.928V150.868L434.472 152.548V157H408.936V152.548L414.396 150.868V129.28C414.396 127.544 414.284 126.144 414.06 125.08C413.892 124.016 413.584 123.204 413.136 122.644C412.688 122.028 412.072 121.636 411.288 121.468C410.56 121.244 409.636 121.132 408.516 121.132C406.388 121.132 403.7 122.364 400.452 124.828V150.868L405.912 152.548V157H380.376ZM434.612 135.496C434.612 128.888 436.46 123.624 440.156 119.704C443.908 115.728 448.976 113.74 455.36 113.74C461.856 113.74 466.756 115.952 470.06 120.376C473.42 124.8 475.1 130.26 475.1 136.756H447.548C447.94 140.9 449.424 144.484 452 147.508C454.576 150.476 457.88 151.96 461.912 151.96C464.936 151.96 468.184 151.316 471.656 150.028L473.42 154.816C468.212 157.112 463.116 158.26 458.132 158.26C450.908 158.26 445.168 156.16 440.912 151.96C436.712 147.704 434.612 142.216 434.612 135.496ZM447.548 131.548L461.744 130.624C461.744 129.28 461.66 128.048 461.492 126.928C461.324 125.752 460.848 124.352 460.064 122.728C458.664 120.376 457.012 119.2 455.108 119.2C452.868 119.2 451.02 120.348 449.564 122.644C448.724 124.044 448.164 125.584 447.884 127.264C447.604 128.944 447.492 130.372 447.548 131.548ZM473.341 119.452V115H498.709V119.452L492.745 120.964L499.633 139.444L507.865 115H516.433L525.085 139.108L531.301 120.964L524.581 119.452V115H543.649V119.452L536.845 121.3L524.749 157.588H517.861L508.285 130.792L499.297 157.588H492.409L478.969 120.964L473.341 119.452ZM1.52 235.584C1.52 230.712 3.508 227.016 7.484 224.496C11.516 221.92 18.012 220.632 26.972 220.632V218.112C26.972 216.432 26.944 215.228 26.888 214.5C26.888 213.716 26.776 212.792 26.552 211.728C26.328 210.664 25.992 209.908 25.544 209.46C25.152 209.012 24.536 208.62 23.696 208.284C22.856 207.892 21.82 207.696 20.588 207.696L9.92 216.936C6.112 214.752 4.208 211.364 4.208 206.772L6.728 205.68C7.792 205.232 9.864 204.644 12.944 203.916C16.024 203.132 19.02 202.74 21.932 202.74C33.972 202.74 39.992 207.556 39.992 217.188V239.7H46.544V243.312C46.264 243.592 45.872 243.956 45.368 244.404C44.864 244.852 43.772 245.44 42.092 246.168C40.412 246.896 38.676 247.26 36.884 247.26C32.628 247.26 29.464 245.832 27.392 242.976C23.64 245.832 19.552 247.26 15.128 247.26C11.264 247.26 8.016 246.28 5.384 244.32C2.808 242.36 1.52 239.448 1.52 235.584ZM15.044 234.828C15.044 236.452 15.576 237.74 16.64 238.692C17.76 239.644 19.104 240.12 20.672 240.12C23.192 240.12 25.292 239.196 26.972 237.348V225.84C23.836 225.84 21.064 226.68 18.656 228.36C16.248 229.984 15.044 232.14 15.044 234.828ZM46.2303 246V241.548L53.3703 239.868V211.644H46.2303V207.192L59.6703 204H66.3063V208.116C69.7223 204.532 73.9503 202.74 78.9903 202.74C81.1743 202.74 83.1343 203.076 84.8703 203.748C86.6623 204.364 88.1463 205.26 89.3223 206.436C90.5543 207.612 91.5063 209.012 92.1783 210.636C92.8503 212.26 93.1863 214.024 93.1863 215.928V239.868L100.326 241.548V246H74.7903V241.548L80.2503 239.868V218.28C80.2503 216.544 80.1383 215.144 79.9143 214.08C79.7463 213.016 79.4383 212.204 78.9903 211.644C78.5423 211.028 77.9263 210.636 77.1423 210.468C76.4143 210.244 75.4903 210.132 74.3703 210.132C72.2423 210.132 69.5543 211.364 66.3063 213.828V239.868L71.7663 241.548V246H46.2303ZM100.466 226.512C100.466 218.952 102.846 213.1 107.606 208.956C112.422 204.812 118.274 202.74 125.162 202.74C126.898 202.74 128.522 202.908 130.034 203.244V186.444H122.894V181.992L136.334 178.8H143.054V239.7H149.606V243.312C149.27 243.592 148.794 243.956 148.178 244.404C147.618 244.852 146.47 245.44 144.734 246.168C142.998 246.896 141.346 247.26 139.778 247.26C137.426 247.26 135.438 246.7 133.814 245.58C132.246 244.46 131.126 243.256 130.454 241.968C127.374 245.496 123.594 247.26 119.114 247.26C114.018 247.26 109.622 245.496 105.926 241.968C102.286 238.384 100.466 233.232 100.466 226.512ZM113.738 226.176C113.738 230.768 114.718 234.24 116.678 236.592C118.694 238.944 120.682 240.12 122.642 240.12C125.442 240.12 127.906 239.084 130.034 237.012V208.788C128.466 208.396 127.094 208.2 125.918 208.2C122.222 208.2 119.254 209.684 117.014 212.652C114.83 215.564 113.738 220.072 113.738 226.176ZM165.015 246V241.548L172.155 239.868V209.376H165.099V204.588L172.155 204.084V197.784C172.155 191.232 173.639 186.22 176.607 182.748C179.631 179.276 183.943 177.54 189.543 177.54C191.895 177.54 194.359 177.792 196.935 178.296C199.511 178.744 201.499 179.192 202.899 179.64L204.999 180.312C205.055 182.272 204.579 184.204 203.572 186.108C202.619 187.956 201.387 189.272 199.876 190.056L192.903 183C191.783 183 190.803 183.168 189.963 183.504C189.179 183.84 188.367 184.484 187.527 185.436C186.743 186.388 186.127 187.9 185.679 189.972C185.287 192.044 185.091 194.648 185.091 197.784V203.244L196.599 202.488V209.376H185.091V239.868L195.003 241.548V246H165.015ZM195.827 208.452V204H215.903V232.98C215.903 235.836 216.239 237.824 216.911 238.944C217.639 240.008 219.067 240.54 221.195 240.54C222.819 240.54 224.499 240.12 226.235 239.28C227.971 238.44 229.371 237.32 230.435 235.92V210.132L224.975 208.452V204H243.455V239.7H250.007V243.312C248.775 244.152 247.767 244.768 246.983 245.16C246.255 245.496 245.415 245.832 244.463 246.168C243.567 246.56 242.615 246.84 241.607 247.008C240.655 247.176 239.759 247.26 238.919 247.26C234.887 247.26 232.059 245.44 230.435 241.8C226.459 245.44 221.587 247.26 215.819 247.26C207.251 247.26 202.967 242.864 202.967 234.072V210.132L195.827 208.452ZM248.998 246V241.548L256.138 239.868V186.444H248.998V181.992L262.438 178.8H269.074V239.868L276.214 241.548V246H248.998ZM275.334 246V241.548L282.474 239.868V186.444H275.334V181.992L288.774 178.8H295.41V239.868L302.55 241.548V246H275.334ZM317.012 246V241.548L324.152 239.868V186.444H317.012V181.992L330.452 178.8H337.088V239.868L344.228 241.548V246H317.012ZM344.607 246V241.548L351.747 239.868V211.644H344.607V207.192L358.047 204H364.683V239.868L371.823 241.548V246H344.607ZM350.403 191.064C350.403 188.88 351.159 187.06 352.671 185.604C354.183 184.092 356.031 183.336 358.215 183.336C360.455 183.336 362.303 184.092 363.759 185.604C365.271 187.06 366.027 188.88 366.027 191.064C366.027 193.304 365.271 195.18 363.759 196.692C362.303 198.204 360.455 198.96 358.215 198.96C356.031 198.96 354.183 198.204 352.671 196.692C351.159 195.18 350.403 193.304 350.403 191.064ZM372.003 246V241.548L379.143 239.868V209.376H372.087V204.588L379.143 204.084V197.784C379.143 191.232 380.627 186.22 383.595 182.748C386.619 179.276 390.931 177.54 396.531 177.54C398.883 177.54 401.347 177.792 403.923 178.296C406.499 178.744 408.487 179.192 409.887 179.64L411.987 180.312C412.043 182.272 411.567 184.204 410.559 186.108C409.607 187.956 408.375 189.272 406.863 190.056L399.891 183C398.771 183 397.791 183.168 396.951 183.504C396.167 183.84 395.355 184.484 394.515 185.436C393.731 186.388 393.115 187.9 392.667 189.972C392.275 192.044 392.079 194.648 392.079 197.784V203.244L403.587 202.488V209.376H392.079V239.868L401.991 241.548V246H372.003ZM403.932 224.496C403.932 217.888 405.78 212.624 409.476 208.704C413.228 204.728 418.296 202.74 424.68 202.74C431.176 202.74 436.076 204.952 439.38 209.376C442.74 213.8 444.42 219.26 444.42 225.756H416.868C417.26 229.9 418.744 233.484 421.32 236.508C423.896 239.476 427.2 240.96 431.232 240.96C434.256 240.96 437.504 240.316 440.976 239.028L442.74 243.816C437.532 246.112 432.436 247.26 427.452 247.26C420.228 247.26 414.488 245.16 410.232 240.96C406.032 236.704 403.932 231.216 403.932 224.496ZM416.868 220.548L431.064 219.624C431.064 218.28 430.98 217.048 430.812 215.928C430.644 214.752 430.168 213.352 429.384 211.728C427.984 209.376 426.332 208.2 424.428 208.2C422.188 208.2 420.34 209.348 418.884 211.644C418.044 213.044 417.484 214.584 417.204 216.264C416.924 217.944 416.812 219.372 416.868 220.548Z" fill="#181E4B"/>
</svg>
