<svg width="116" height="35" viewBox="0 0 116 35" fill="none" xmlns="http://www.w3.org/2000/svg">
<path d="M0.919983 24.064V21.902L7.03798 20.798V23.788C7.06865 25.4133 7.48265 26.64 8.27998 27.468C9.10798 28.2653 10.1966 28.664 11.546 28.664C12.8646 28.664 13.9073 28.2347 14.674 27.376C15.4713 26.5173 15.87 25.3673 15.87 23.926V1.38598H22.218V23.926C22.218 26.9313 21.2213 29.4767 19.228 31.562C17.2346 33.6473 14.6893 34.69 11.592 34.69C8.37198 34.69 5.78065 33.724 3.81798 31.792C1.88598 29.8293 0.919983 27.2533 0.919983 24.064Z" fill="black"/>
<path d="M23.6767 27.836C23.6767 25.904 24.3054 24.3553 25.5627 23.19C26.82 22.0247 28.4454 21.2887 30.4387 20.982L36.0047 20.154C37.1394 20.0007 37.7067 19.464 37.7067 18.544C37.7067 17.6853 37.3694 16.98 36.6947 16.428C36.0507 15.876 35.1154 15.6 33.8887 15.6C32.6007 15.6 31.5734 15.9527 30.8067 16.658C30.0707 17.3633 29.6567 18.2373 29.5647 19.28L24.1367 18.13C24.3514 16.1673 25.3174 14.4347 27.0347 12.932C28.752 11.4293 31.0214 10.678 33.8427 10.678C37.216 10.678 39.7 11.4907 41.2947 13.116C42.8894 14.7107 43.6867 16.7653 43.6867 19.28V30.412C43.6867 31.7613 43.7787 32.9573 43.9627 34H38.3507C38.1974 33.3253 38.1207 32.4207 38.1207 31.286C36.6794 33.5247 34.456 34.644 31.4507 34.644C29.12 34.644 27.234 33.9693 25.7927 32.62C24.382 31.2707 23.6767 29.676 23.6767 27.836ZM32.7387 30.09C34.18 30.09 35.3607 29.6913 36.2807 28.894C37.2313 28.066 37.7067 26.7167 37.7067 24.846V23.834L32.6007 24.616C30.73 24.892 29.7947 25.8427 29.7947 27.468C29.7947 28.204 30.0554 28.8327 30.5767 29.354C31.098 29.8447 31.8187 30.09 32.7387 30.09Z" fill="black"/>
<path d="M67.6577 0.695984V29.906C67.6577 31.4087 67.7191 32.7733 67.8417 34H61.9997C61.8464 33.2333 61.7697 32.3593 61.7697 31.378C61.2484 32.3287 60.4204 33.0953 59.2857 33.678C58.1817 34.2607 56.8937 34.552 55.4217 34.552C52.2017 34.552 49.5491 33.4327 47.4637 31.194C45.409 28.9247 44.3817 26.0727 44.3817 22.638C44.3817 19.2953 45.3937 16.4893 47.4177 14.22C49.4724 11.9507 52.079 10.816 55.2377 10.816C58.4884 10.816 60.6197 11.7513 61.6317 13.622V0.695984H67.6577ZM50.5457 22.638C50.5457 24.6313 51.0671 26.2107 52.1097 27.376C53.1524 28.5107 54.5017 29.078 56.1577 29.078C57.7831 29.078 59.1171 28.4953 60.1597 27.33C61.2024 26.1647 61.7237 24.5853 61.7237 22.592C61.7237 20.6293 61.2024 19.096 60.1597 17.992C59.1171 16.8573 57.7831 16.29 56.1577 16.29C54.5324 16.29 53.1831 16.8573 52.1097 17.992C51.0671 19.1267 50.5457 20.6753 50.5457 22.638Z" fill="black"/>
<path d="M76.6867 27.422C77.8213 28.5567 79.186 29.124 80.7807 29.124C82.3753 29.124 83.7246 28.5567 84.8287 27.422C85.9633 26.2873 86.5307 24.708 86.5307 22.684C86.5307 20.66 85.9633 19.0807 84.8287 17.946C83.7246 16.8113 82.3753 16.244 80.7807 16.244C79.186 16.244 77.8213 16.8113 76.6867 17.946C75.5827 19.0807 75.0307 20.66 75.0307 22.684C75.0307 24.708 75.5827 26.2873 76.6867 27.422ZM72.2707 14.082C74.54 11.8127 77.3767 10.678 80.7807 10.678C84.1847 10.678 87.006 11.8127 89.2447 14.082C91.514 16.3513 92.6487 19.2187 92.6487 22.684C92.6487 26.1493 91.514 29.0167 89.2447 31.286C87.006 33.5553 84.1847 34.69 80.7807 34.69C77.3767 34.69 74.54 33.5553 72.2707 31.286C70.032 29.0167 68.9127 26.1493 68.9127 22.684C68.9127 19.2187 70.032 16.3513 72.2707 14.082Z" fill="black"/>
<path d="M99.8699 27.422C101.005 28.5567 102.369 29.124 103.964 29.124C105.559 29.124 106.908 28.5567 108.012 27.422C109.147 26.2873 109.714 24.708 109.714 22.684C109.714 20.66 109.147 19.0807 108.012 17.946C106.908 16.8113 105.559 16.244 103.964 16.244C102.369 16.244 101.005 16.8113 99.8699 17.946C98.7659 19.0807 98.2139 20.66 98.2139 22.684C98.2139 24.708 98.7659 26.2873 99.8699 27.422ZM95.4539 14.082C97.7233 11.8127 100.56 10.678 103.964 10.678C107.368 10.678 110.189 11.8127 112.428 14.082C114.697 16.3513 115.832 19.2187 115.832 22.684C115.832 26.1493 114.697 29.0167 112.428 31.286C110.189 33.5553 107.368 34.69 103.964 34.69C100.56 34.69 97.7233 33.5553 95.4539 31.286C93.2153 29.0167 92.0959 26.1493 92.0959 22.684C92.0959 19.2187 93.2153 16.3513 95.4539 14.082Z" fill="black"/>
</svg>
