<svg width="454" height="78" viewBox="0 0 454 78" fill="none" xmlns="http://www.w3.org/2000/svg">
<path d="M7.472 9.816C7.472 10.888 6.72 11.512 5.488 11.512H3.024V8.04H5.424C6.64 8.04 7.472 8.712 7.472 9.816ZM7.184 4.968C7.184 5.992 6.464 6.552 5.28 6.552H3.024V3.368H5.28C6.464 3.368 7.184 3.96 7.184 4.968ZM9.296 10.008C9.296 8.68 8.336 7.496 7.152 7.288C8.224 6.904 9.04 6.088 9.04 4.744C9.04 3.176 7.792 1.88 5.44 1.88H1.2V13H5.648C7.92 13 9.296 11.704 9.296 10.008ZM19.2621 4.184H17.4381V9.096C17.4381 10.712 16.5581 11.544 15.2141 11.544C13.8861 11.544 13.0061 10.712 13.0061 9.096V4.184H11.1981V9.368C11.1981 11.832 12.7661 13.128 14.8301 13.128C15.8701 13.128 16.8621 12.696 17.4381 11.944V13H19.2621V4.184ZM21.6688 13H23.4928V4.184H21.6688V13ZM22.5968 3.016C23.2368 3.016 23.7488 2.504 23.7488 1.848C23.7488 1.192 23.2368 0.679999 22.5968 0.679999C21.9408 0.679999 21.4288 1.192 21.4288 1.848C21.4288 2.504 21.9408 3.016 22.5968 3.016ZM25.8875 13H27.7115V1.16H25.8875V13ZM30.3943 10.552C30.3943 12.344 31.3703 13 32.9383 13H34.3783V11.48H33.2583C32.4903 11.48 32.2343 11.208 32.2343 10.552V5.672H34.3783V4.184H32.2343V1.992H30.3943V4.184H29.3543V5.672H30.3943V10.552ZM42.4716 13.016L44.5196 13L46.9996 4.584L49.3356 13H51.3996L54.6956 1.88H52.7436L50.4236 10.888L48.1036 1.88H46.0556L43.5596 10.936L41.2556 1.88H39.3196L42.4716 13.016ZM56.2 13H58.024V4.184H56.2V13ZM57.128 3.016C57.768 3.016 58.28 2.504 58.28 1.848C58.28 1.192 57.768 0.679999 57.128 0.679999C56.472 0.679999 55.96 1.192 55.96 1.848C55.96 2.504 56.472 3.016 57.128 3.016ZM59.8108 8.584C59.8108 11.352 61.6028 13.144 64.1308 13.144C66.2908 13.144 67.6988 11.944 68.1948 10.216H66.2268C65.8908 11.128 65.2188 11.608 64.1308 11.608C62.6588 11.608 61.6828 10.52 61.6828 8.584C61.6828 6.664 62.6588 5.576 64.1308 5.576C65.2188 5.576 65.9228 6.12 66.2268 6.968H68.1948C67.6988 5.112 66.2908 4.04 64.1308 4.04C61.6028 4.04 59.8108 5.832 59.8108 8.584ZM70.0125 13H71.8365V9.208L75.1005 13H77.5645L73.5005 8.6L77.5645 4.184H75.0365L71.8365 8.04V1.16H70.0125V13ZM82.5839 5.576C83.9439 5.576 85.0159 6.44 85.0479 7.8H80.1679C80.3599 6.408 81.3519 5.576 82.5839 5.576ZM86.7119 10.376H84.7439C84.4079 11.064 83.7839 11.608 82.6639 11.608C81.3199 11.608 80.2799 10.728 80.1519 9.272H86.8879C86.9359 8.968 86.9519 8.68 86.9519 8.376C86.9519 5.784 85.1759 4.04 82.6639 4.04C80.0559 4.04 78.2639 5.816 78.2639 8.584C78.2639 11.352 80.1359 13.144 82.6639 13.144C84.8239 13.144 86.2159 11.912 86.7119 10.376ZM89.0349 10.552C89.0349 12.344 90.0109 13 91.5789 13H93.0189V11.48H91.8989C91.1309 11.48 90.8749 11.208 90.8749 10.552V5.672H93.0189V4.184H90.8749V1.992H89.0349V4.184H87.9949V5.672H89.0349V10.552ZM98.8563 13H100.68V1.16H98.8563V13ZM111.475 8.584C111.475 5.816 109.491 4.04 106.979 4.04C104.467 4.04 102.483 5.816 102.483 8.584C102.483 11.352 104.387 13.144 106.899 13.144C109.427 13.144 111.475 11.352 111.475 8.584ZM104.339 8.584C104.339 6.584 105.571 5.624 106.947 5.624C108.307 5.624 109.603 6.584 109.603 8.584C109.603 10.584 108.259 11.56 106.899 11.56C105.523 11.56 104.339 10.584 104.339 8.584ZM119.534 13H121.342V7.8C121.342 5.336 119.79 4.04 117.726 4.04C116.67 4.04 115.694 4.472 115.102 5.192V4.184H113.278V13H115.102V8.072C115.102 6.456 115.982 5.624 117.326 5.624C118.654 5.624 119.534 6.456 119.534 8.072V13ZM123.061 8.552C123.061 11.272 124.901 13.144 127.221 13.144C128.661 13.144 129.717 12.424 130.277 11.672V13.144C130.277 14.904 129.221 15.768 127.813 15.768C126.549 15.768 125.573 15.144 125.301 14.232H123.493C123.717 16.184 125.461 17.352 127.813 17.352C130.565 17.352 132.117 15.544 132.117 13.144V4.184H130.277V5.464C129.733 4.712 128.661 4.04 127.221 4.04C124.901 4.04 123.061 5.832 123.061 8.552ZM130.277 8.584C130.277 10.488 128.981 11.56 127.605 11.56C126.245 11.56 124.933 10.456 124.933 8.552C124.933 6.648 126.245 5.624 127.605 5.624C128.981 5.624 130.277 6.696 130.277 8.584ZM138.225 5.576C139.585 5.576 140.657 6.44 140.689 7.8H135.809C136.001 6.408 136.993 5.576 138.225 5.576ZM142.352 10.376H140.385C140.049 11.064 139.425 11.608 138.305 11.608C136.961 11.608 135.921 10.728 135.793 9.272H142.529C142.577 8.968 142.593 8.68 142.593 8.376C142.593 5.784 140.817 4.04 138.305 4.04C135.697 4.04 133.905 5.816 133.905 8.584C133.905 11.352 135.777 13.144 138.305 13.144C140.465 13.144 141.857 11.912 142.352 10.376ZM146.212 8.36C146.212 6.488 147.044 5.928 148.388 5.928H148.852V4.04C147.604 4.04 146.724 4.584 146.212 5.464V4.184H144.388V13H146.212V8.36ZM154.076 8.552C154.076 11.272 155.916 13.144 158.204 13.144C159.676 13.144 160.732 12.44 161.292 11.688V13H163.132V4.184H161.292V5.464C160.748 4.744 159.724 4.04 158.236 4.04C155.916 4.04 154.076 5.832 154.076 8.552ZM161.292 8.584C161.292 10.488 159.996 11.56 158.62 11.56C157.26 11.56 155.948 10.456 155.948 8.552C155.948 6.648 157.26 5.624 158.62 5.624C159.996 5.624 161.292 6.696 161.292 8.584ZM164.92 8.552C164.92 11.272 166.76 13.144 169.08 13.144C170.52 13.144 171.576 12.472 172.136 11.672V13H173.976V1.16H172.136V5.416C171.464 4.584 170.248 4.04 169.096 4.04C166.76 4.04 164.92 5.832 164.92 8.552ZM172.136 8.584C172.136 10.488 170.84 11.56 169.464 11.56C168.104 11.56 166.792 10.456 166.792 8.552C166.792 6.648 168.104 5.624 169.464 5.624C170.84 5.624 172.136 6.696 172.136 8.584ZM188.868 13H190.676V7.8C190.676 5.336 189.108 4.04 187.044 4.04C185.764 4.04 184.516 4.712 183.972 5.784C183.364 4.632 182.196 4.04 180.804 4.04C179.748 4.04 178.788 4.472 178.196 5.192V4.184H176.372V13H178.196V8.072C178.196 6.456 179.076 5.624 180.42 5.624C181.748 5.624 182.628 6.456 182.628 8.072V13H184.436V8.072C184.436 6.456 185.316 5.624 186.66 5.624C187.988 5.624 188.868 6.456 188.868 8.072V13ZM192.997 13H194.821V4.184H192.997V13ZM193.925 3.016C194.565 3.016 195.077 2.504 195.077 1.848C195.077 1.192 194.565 0.679999 193.925 0.679999C193.269 0.679999 192.757 1.192 192.757 1.848C192.757 2.504 193.269 3.016 193.925 3.016ZM199.04 8.36C199.04 6.488 199.872 5.928 201.216 5.928H201.68V4.04C200.432 4.04 199.552 4.584 199.04 5.464V4.184H197.216V13H199.04V8.36ZM207.068 5.576C208.428 5.576 209.5 6.44 209.532 7.8H204.652C204.844 6.408 205.836 5.576 207.068 5.576ZM211.196 10.376H209.228C208.892 11.064 208.268 11.608 207.148 11.608C205.804 11.608 204.764 10.728 204.636 9.272H211.372C211.42 8.968 211.436 8.68 211.436 8.376C211.436 5.784 209.66 4.04 207.148 4.04C204.54 4.04 202.748 5.816 202.748 8.584C202.748 11.352 204.62 13.144 207.148 13.144C209.308 13.144 210.7 11.912 211.196 10.376ZM216.78 8.552C216.78 11.272 218.62 13.144 220.94 13.144C222.38 13.144 223.436 12.472 223.996 11.672V13H225.836V1.16H223.996V5.416C223.324 4.584 222.108 4.04 220.956 4.04C218.62 4.04 216.78 5.832 216.78 8.552ZM223.996 8.584C223.996 10.488 222.7 11.56 221.324 11.56C219.964 11.56 218.652 10.456 218.652 8.552C218.652 6.648 219.964 5.624 221.324 5.624C222.7 5.624 223.996 6.696 223.996 8.584ZM236.631 8.584C236.631 5.816 234.647 4.04 232.135 4.04C229.623 4.04 227.639 5.816 227.639 8.584C227.639 11.352 229.543 13.144 232.055 13.144C234.583 13.144 236.631 11.352 236.631 8.584ZM229.495 8.584C229.495 6.584 230.727 5.624 232.103 5.624C233.463 5.624 234.759 6.584 234.759 8.584C234.759 10.584 233.415 11.56 232.055 11.56C230.679 11.56 229.495 10.584 229.495 8.584ZM244.415 5.496V1.16H242.591V13H244.415V11.72C244.991 12.488 246.031 13.144 247.487 13.144C249.807 13.144 251.631 11.272 251.631 8.552C251.631 5.832 249.823 4.04 247.487 4.04C246.095 4.04 244.991 4.696 244.415 5.496ZM249.775 8.552C249.775 10.456 248.463 11.56 247.087 11.56C245.727 11.56 244.415 10.488 244.415 8.584C244.415 6.696 245.727 5.624 247.087 5.624C248.463 5.624 249.775 6.648 249.775 8.552ZM252.826 8.552C252.826 11.272 254.666 13.144 256.954 13.144C258.426 13.144 259.482 12.44 260.042 11.688V13H261.882V4.184H260.042V5.464C259.498 4.744 258.474 4.04 256.986 4.04C254.666 4.04 252.826 5.832 252.826 8.552ZM260.042 8.584C260.042 10.488 258.746 11.56 257.37 11.56C256.01 11.56 254.698 10.456 254.698 8.552C254.698 6.648 256.01 5.624 257.37 5.624C258.746 5.624 260.042 6.696 260.042 8.584ZM266.102 8.36C266.102 6.488 266.934 5.928 268.278 5.928H268.742V4.04C267.494 4.04 266.614 4.584 266.102 5.464V4.184H264.278V13H266.102V8.36ZM270.707 10.552C270.707 12.344 271.683 13 273.251 13H274.691V11.48H273.571C272.803 11.48 272.547 11.208 272.547 10.552V5.672H274.691V4.184H272.547V1.992H270.707V4.184H269.667V5.672H270.707V10.552ZM284.772 8.584C284.772 5.816 282.788 4.04 280.276 4.04C277.764 4.04 275.78 5.816 275.78 8.584C275.78 11.352 277.684 13.144 280.196 13.144C282.724 13.144 284.772 11.352 284.772 8.584ZM277.636 8.584C277.636 6.584 278.868 5.624 280.244 5.624C281.604 5.624 282.9 6.584 282.9 8.584C282.9 10.584 281.556 11.56 280.196 11.56C278.82 11.56 277.636 10.584 277.636 8.584ZM292.831 13H294.639V7.8C294.639 5.336 293.087 4.04 291.023 4.04C289.967 4.04 288.991 4.472 288.399 5.192V4.184H286.575V13H288.399V8.072C288.399 6.456 289.279 5.624 290.623 5.624C291.951 5.624 292.831 6.456 292.831 8.072V13ZM300.082 4.184L303.426 13H305.602L308.962 4.184H307.026L304.53 11.368L302.034 4.184H300.082ZM309.733 8.552C309.733 11.272 311.573 13.144 313.861 13.144C315.333 13.144 316.389 12.44 316.949 11.688V13H318.789V4.184H316.949V5.464C316.405 4.744 315.381 4.04 313.893 4.04C311.573 4.04 309.733 5.832 309.733 8.552ZM316.949 8.584C316.949 10.488 315.653 11.56 314.277 11.56C312.917 11.56 311.605 10.456 311.605 8.552C311.605 6.648 312.917 5.624 314.277 5.624C315.653 5.624 316.949 6.696 316.949 8.584ZM327.44 13H329.248V7.8C329.248 5.336 327.696 4.04 325.632 4.04C324.576 4.04 323.6 4.472 323.008 5.192V4.184H321.184V13H323.008V8.072C323.008 6.456 323.888 5.624 325.232 5.624C326.56 5.624 327.44 6.456 327.44 8.072V13ZM331.575 13H333.399V4.184H331.575V13ZM332.503 3.016C333.143 3.016 333.655 2.504 333.655 1.848C333.655 1.192 333.143 0.679999 332.503 0.679999C331.847 0.679999 331.335 1.192 331.335 1.848C331.335 2.504 331.847 3.016 332.503 3.016ZM336.082 10.552C336.082 12.344 337.058 13 338.626 13H340.066V11.48H338.946C338.178 11.48 337.922 11.208 337.922 10.552V5.672H340.066V4.184H337.922V1.992H336.082V4.184H335.042V5.672H336.082V10.552ZM345.219 10.904L342.739 4.184H340.707L344.179 12.856L342.387 17.144H344.275L349.683 4.184H347.795L345.219 10.904ZM355.216 13H357.04V4.184H355.216V13ZM356.144 3.016C356.784 3.016 357.296 2.504 357.296 1.848C357.296 1.192 356.784 0.679999 356.144 0.679999C355.488 0.679999 354.976 1.192 354.976 1.848C354.976 2.504 355.488 3.016 356.144 3.016ZM359.722 10.552C359.722 12.344 360.698 13 362.266 13H363.706V11.48H362.586C361.818 11.48 361.562 11.208 361.562 10.552V5.672H363.706V4.184H361.562V1.992H359.722V4.184H358.682V5.672H359.722V10.552ZM371.964 10.536C371.868 7.352 366.892 8.344 366.892 6.568C366.892 5.976 367.404 5.576 368.38 5.576C369.372 5.576 369.964 6.104 370.028 6.872H371.852C371.756 5.112 370.444 4.04 368.444 4.04C366.364 4.04 365.052 5.176 365.052 6.584C365.052 9.816 370.172 8.824 370.172 10.552C370.172 11.16 369.612 11.608 368.556 11.608C367.548 11.608 366.86 11.016 366.796 10.296H364.908C364.988 11.896 366.476 13.144 368.588 13.144C370.668 13.144 371.964 12.024 371.964 10.536ZM377.646 5.576C379.006 5.576 380.078 6.44 380.11 7.8H375.23C375.422 6.408 376.414 5.576 377.646 5.576ZM381.774 10.376H379.806C379.47 11.064 378.846 11.608 377.726 11.608C376.382 11.608 375.342 10.728 375.214 9.272H381.95C381.998 8.968 382.014 8.68 382.014 8.376C382.014 5.784 380.238 4.04 377.726 4.04C375.118 4.04 373.326 5.816 373.326 8.584C373.326 11.352 375.198 13.144 377.726 13.144C379.886 13.144 381.278 11.912 381.774 10.376ZM383.809 13H385.633V1.16H383.809V13ZM388.252 13H390.092V5.672H391.724V4.184H390.092V3.56C390.092 2.552 390.476 2.168 391.596 2.168V0.648C389.292 0.648 388.252 1.528 388.252 3.56V4.184H387.212V5.672H388.252V13ZM396.889 8.552C396.889 11.272 398.729 13.144 401.049 13.144C402.489 13.144 403.545 12.472 404.105 11.672V13H405.945V1.16H404.105V5.416C403.433 4.584 402.217 4.04 401.065 4.04C398.729 4.04 396.889 5.832 396.889 8.552ZM404.105 8.584C404.105 10.488 402.809 11.56 401.433 11.56C400.073 11.56 398.761 10.456 398.761 8.552C398.761 6.648 400.073 5.624 401.433 5.624C402.809 5.624 404.105 6.696 404.105 8.584ZM416.741 8.584C416.741 5.816 414.757 4.04 412.245 4.04C409.733 4.04 407.749 5.816 407.749 8.584C407.749 11.352 409.653 13.144 412.165 13.144C414.693 13.144 416.741 11.352 416.741 8.584ZM409.605 8.584C409.605 6.584 410.837 5.624 412.213 5.624C413.573 5.624 414.869 6.584 414.869 8.584C414.869 10.584 413.525 11.56 412.165 11.56C410.789 11.56 409.605 10.584 409.605 8.584ZM422.7 13H424.524V4.184H422.7V13ZM423.628 3.016C424.268 3.016 424.78 2.504 424.78 1.848C424.78 1.192 424.268 0.679999 423.628 0.679999C422.972 0.679999 422.46 1.192 422.46 1.848C422.46 2.504 422.972 3.016 423.628 3.016ZM433.175 13H434.983V7.8C434.983 5.336 433.431 4.04 431.367 4.04C430.311 4.04 429.335 4.472 428.743 5.192V4.184H426.919V13H428.743V8.072C428.743 6.456 429.623 5.624 430.967 5.624C432.295 5.624 433.175 6.456 433.175 8.072V13ZM441.466 13H443.29V4.184H441.466V13ZM442.394 3.016C443.034 3.016 443.546 2.504 443.546 1.848C443.546 1.192 443.034 0.679999 442.394 0.679999C441.738 0.679999 441.226 1.192 441.226 1.848C441.226 2.504 441.738 3.016 442.394 3.016ZM445.972 10.552C445.972 12.344 446.948 13 448.516 13H449.956V11.48H448.836C448.068 11.48 447.812 11.208 447.812 10.552V5.672H449.956V4.184H447.812V1.992H445.972V4.184H444.932V5.672H445.972V10.552ZM453.526 11.944C453.526 11.288 453.014 10.776 452.374 10.776C451.718 10.776 451.206 11.288 451.206 11.944C451.206 12.6 451.718 13.112 452.374 13.112C453.014 13.112 453.526 12.6 453.526 11.944ZM3.024 37V33.368H5.04C6.464 33.368 7.104 34.04 7.104 35.192C7.104 36.312 6.464 37 5.04 37H3.024ZM8.976 35.192C8.976 33.384 7.68 31.88 5.04 31.88H1.2V43H3.024V38.488H5.04C7.936 38.488 8.976 36.776 8.976 35.192ZM12.5396 38.36C12.5396 36.488 13.3716 35.928 14.7156 35.928H15.1796V34.04C13.9316 34.04 13.0516 34.584 12.5396 35.464V34.184H10.7156V43H12.5396V38.36ZM20.5683 35.576C21.9283 35.576 23.0003 36.44 23.0323 37.8H18.1523C18.3443 36.408 19.3363 35.576 20.5683 35.576ZM24.6962 40.376H22.7283C22.3923 41.064 21.7683 41.608 20.6483 41.608C19.3043 41.608 18.2643 40.728 18.1363 39.272H24.8723C24.9203 38.968 24.9363 38.68 24.9363 38.376C24.9363 35.784 23.1603 34.04 20.6483 34.04C18.0403 34.04 16.2483 35.816 16.2483 38.584C16.2483 41.352 18.1203 43.144 20.6483 43.144C22.8083 43.144 24.2003 41.912 24.6962 40.376ZM26.9553 43H28.7953V35.672H30.4273V34.184H28.7953V33.56C28.7953 32.552 29.1793 32.168 30.2993 32.168V30.648C27.9953 30.648 26.9553 31.528 26.9553 33.56V34.184H25.9153V35.672H26.9553V43ZM35.7558 35.576C37.1158 35.576 38.1878 36.44 38.2198 37.8H33.3398C33.5318 36.408 34.5238 35.576 35.7558 35.576ZM39.8837 40.376H37.9158C37.5798 41.064 36.9558 41.608 35.8358 41.608C34.4918 41.608 33.4518 40.728 33.3238 39.272H40.0598C40.1078 38.968 40.1238 38.68 40.1238 38.376C40.1238 35.784 38.3478 34.04 35.8358 34.04C33.2278 34.04 31.4358 35.816 31.4358 38.584C31.4358 41.352 33.3078 43.144 35.8358 43.144C37.9958 43.144 39.3878 41.912 39.8837 40.376ZM43.7428 38.36C43.7428 36.488 44.5748 35.928 45.9188 35.928H46.3828V34.04C45.1348 34.04 44.2548 34.584 43.7428 35.464V34.184H41.9188V43H43.7428V38.36ZM49.8834 38.36C49.8834 36.488 50.7154 35.928 52.0594 35.928H52.5234V34.04C51.2754 34.04 50.3954 34.584 49.8834 35.464V34.184H48.0594V43H49.8834V38.36ZM57.912 35.576C59.272 35.576 60.344 36.44 60.376 37.8H55.496C55.688 36.408 56.68 35.576 57.912 35.576ZM62.04 40.376H60.072C59.736 41.064 59.112 41.608 57.992 41.608C56.648 41.608 55.608 40.728 55.48 39.272H62.216C62.264 38.968 62.28 38.68 62.28 38.376C62.28 35.784 60.504 34.04 57.992 34.04C55.384 34.04 53.592 35.816 53.592 38.584C53.592 41.352 55.464 43.144 57.992 43.144C60.152 43.144 61.544 41.912 62.04 40.376ZM63.467 38.552C63.467 41.272 65.307 43.144 67.627 43.144C69.067 43.144 70.123 42.472 70.683 41.672V43H72.523V31.16H70.683V35.416C70.011 34.584 68.795 34.04 67.643 34.04C65.307 34.04 63.467 35.832 63.467 38.552ZM70.683 38.584C70.683 40.488 69.387 41.56 68.011 41.56C66.651 41.56 65.339 40.456 65.339 38.552C65.339 36.648 66.651 35.624 68.011 35.624C69.387 35.624 70.683 36.696 70.683 38.584ZM79.363 40.552C79.363 42.344 80.339 43 81.907 43H83.347V41.48H82.227C81.459 41.48 81.203 41.208 81.203 40.552V35.672H83.347V34.184H81.203V31.992H79.363V34.184H78.323V35.672H79.363V40.552ZM93.4281 38.584C93.4281 35.816 91.4441 34.04 88.9321 34.04C86.4201 34.04 84.4361 35.816 84.4361 38.584C84.4361 41.352 86.3401 43.144 88.8521 43.144C91.3801 43.144 93.4281 41.352 93.4281 38.584ZM86.2921 38.584C86.2921 36.584 87.5241 35.624 88.9001 35.624C90.2601 35.624 91.5561 36.584 91.5561 38.584C91.5561 40.584 90.2121 41.56 88.8521 41.56C87.4761 41.56 86.2921 40.584 86.2921 38.584ZM105.964 40.536C105.868 37.352 100.892 38.344 100.892 36.568C100.892 35.976 101.404 35.576 102.38 35.576C103.372 35.576 103.964 36.104 104.028 36.872H105.852C105.756 35.112 104.444 34.04 102.444 34.04C100.364 34.04 99.0515 35.176 99.0515 36.584C99.0515 39.816 104.172 38.824 104.172 40.552C104.172 41.16 103.612 41.608 102.556 41.608C101.548 41.608 100.86 41.016 100.796 40.296H98.9075C98.9875 41.896 100.476 43.144 102.588 43.144C104.668 43.144 105.964 42.024 105.964 40.536ZM109.758 35.48V34.184H107.934V47.192H109.758V41.72C110.334 42.408 111.374 43.144 112.83 43.144C115.15 43.144 116.974 41.272 116.974 38.552C116.974 35.832 115.15 34.04 112.83 34.04C111.39 34.04 110.318 34.744 109.758 35.48ZM115.118 38.552C115.118 40.456 113.806 41.56 112.43 41.56C111.07 41.56 109.758 40.488 109.758 38.584C109.758 36.696 111.07 35.624 112.43 35.624C113.806 35.624 115.118 36.648 115.118 38.552ZM127.178 38.584C127.178 35.816 125.194 34.04 122.682 34.04C120.17 34.04 118.186 35.816 118.186 38.584C118.186 41.352 120.09 43.144 122.602 43.144C125.13 43.144 127.178 41.352 127.178 38.584ZM120.042 38.584C120.042 36.584 121.274 35.624 122.65 35.624C124.01 35.624 125.306 36.584 125.306 38.584C125.306 40.584 123.962 41.56 122.602 41.56C121.226 41.56 120.042 40.584 120.042 38.584ZM130.805 38.36C130.805 36.488 131.637 35.928 132.981 35.928H133.445V34.04C132.197 34.04 131.317 34.584 130.805 35.464V34.184H128.981V43H130.805V38.36ZM135.41 40.552C135.41 42.344 136.386 43 137.954 43H139.394V41.48H138.274C137.506 41.48 137.25 41.208 137.25 40.552V35.672H139.394V34.184H137.25V31.992H135.41V34.184H134.37V35.672H135.41V40.552ZM147.651 40.536C147.555 37.352 142.579 38.344 142.579 36.568C142.579 35.976 143.091 35.576 144.067 35.576C145.059 35.576 145.651 36.104 145.715 36.872H147.539C147.443 35.112 146.131 34.04 144.131 34.04C142.051 34.04 140.739 35.176 140.739 36.584C140.739 39.816 145.859 38.824 145.859 40.552C145.859 41.16 145.299 41.608 144.243 41.608C143.235 41.608 142.547 41.016 142.483 40.296H140.595C140.675 41.896 142.163 43.144 144.275 43.144C146.355 43.144 147.651 42.024 147.651 40.536ZM162.118 43H163.926V37.8C163.926 35.336 162.358 34.04 160.294 34.04C159.014 34.04 157.766 34.712 157.222 35.784C156.614 34.632 155.446 34.04 154.054 34.04C152.998 34.04 152.038 34.472 151.446 35.192V34.184H149.622V43H151.446V38.072C151.446 36.456 152.326 35.624 153.67 35.624C154.998 35.624 155.878 36.456 155.878 38.072V43H157.686V38.072C157.686 36.456 158.566 35.624 159.91 35.624C161.238 35.624 162.118 36.456 162.118 38.072V43ZM169.959 35.576C171.319 35.576 172.391 36.44 172.423 37.8H167.543C167.735 36.408 168.727 35.576 169.959 35.576ZM174.087 40.376H172.119C171.783 41.064 171.159 41.608 170.039 41.608C168.695 41.608 167.655 40.728 167.527 39.272H174.263C174.311 38.968 174.327 38.68 174.327 38.376C174.327 35.784 172.551 34.04 170.039 34.04C167.431 34.04 165.639 35.816 165.639 38.584C165.639 41.352 167.511 43.144 170.039 43.144C172.199 43.144 173.591 41.912 174.087 40.376ZM182.378 43H184.186V37.8C184.186 35.336 182.634 34.04 180.57 34.04C179.514 34.04 178.538 34.472 177.946 35.192V34.184H176.122V43H177.946V38.072C177.946 36.456 178.826 35.624 180.17 35.624C181.498 35.624 182.378 36.456 182.378 38.072V43ZM190.669 43H192.493V34.184H190.669V43ZM191.597 33.016C192.237 33.016 192.749 32.504 192.749 31.848C192.749 31.192 192.237 30.68 191.597 30.68C190.941 30.68 190.429 31.192 190.429 31.848C190.429 32.504 190.941 33.016 191.597 33.016ZM195.176 40.552C195.176 42.344 196.152 43 197.72 43H199.16V41.48H198.04C197.272 41.48 197.016 41.208 197.016 40.552V35.672H199.16V34.184H197.016V31.992H195.176V34.184H194.136V35.672H195.176V40.552ZM208.709 35.576C210.069 35.576 211.141 36.44 211.173 37.8H206.293C206.485 36.408 207.477 35.576 208.709 35.576ZM212.837 40.376H210.869C210.533 41.064 209.909 41.608 208.789 41.608C207.445 41.608 206.405 40.728 206.277 39.272H213.013C213.061 38.968 213.077 38.68 213.077 38.376C213.077 35.784 211.301 34.04 208.789 34.04C206.181 34.04 204.389 35.816 204.389 38.584C204.389 41.352 206.261 43.144 208.789 43.144C210.949 43.144 212.341 41.912 212.837 40.376ZM221.128 43H222.936V37.8C222.936 35.336 221.384 34.04 219.32 34.04C218.264 34.04 217.288 34.472 216.696 35.192V34.184H214.872V43H216.696V38.072C216.696 36.456 217.576 35.624 218.92 35.624C220.248 35.624 221.128 36.456 221.128 38.072V43ZM224.655 38.552C224.655 41.272 226.495 43.144 228.815 43.144C230.255 43.144 231.311 42.424 231.871 41.672V43.144C231.871 44.904 230.815 45.768 229.407 45.768C228.143 45.768 227.167 45.144 226.895 44.232H225.087C225.311 46.184 227.055 47.352 229.407 47.352C232.159 47.352 233.711 45.544 233.711 43.144V34.184H231.871V35.464C231.327 34.712 230.255 34.04 228.815 34.04C226.495 34.04 224.655 35.832 224.655 38.552ZM231.871 38.584C231.871 40.488 230.575 41.56 229.199 41.56C227.839 41.56 226.527 40.456 226.527 38.552C226.527 36.648 227.839 35.624 229.199 35.624C230.575 35.624 231.871 36.696 231.871 38.584ZM237.93 38.36C237.93 36.488 238.762 35.928 240.106 35.928H240.57V34.04C239.322 34.04 238.442 34.584 237.93 35.464V34.184H236.106V43H237.93V38.36ZM250.647 38.584C250.647 35.816 248.663 34.04 246.151 34.04C243.639 34.04 241.655 35.816 241.655 38.584C241.655 41.352 243.559 43.144 246.071 43.144C248.599 43.144 250.647 41.352 250.647 38.584ZM243.511 38.584C243.511 36.584 244.743 35.624 246.119 35.624C247.479 35.624 248.775 36.584 248.775 38.584C248.775 40.584 247.431 41.56 246.071 41.56C244.695 41.56 243.511 40.584 243.511 38.584ZM259.026 40.536C258.93 37.352 253.954 38.344 253.954 36.568C253.954 35.976 254.466 35.576 255.442 35.576C256.434 35.576 257.026 36.104 257.09 36.872H258.914C258.818 35.112 257.506 34.04 255.506 34.04C253.426 34.04 252.114 35.176 252.114 36.584C252.114 39.816 257.234 38.824 257.234 40.552C257.234 41.16 256.674 41.608 255.618 41.608C254.61 41.608 253.922 41.016 253.858 40.296H251.97C252.05 41.896 253.538 43.144 255.65 43.144C257.73 43.144 259.026 42.024 259.026 40.536ZM267.573 40.536C267.477 37.352 262.501 38.344 262.501 36.568C262.501 35.976 263.013 35.576 263.989 35.576C264.981 35.576 265.573 36.104 265.637 36.872H267.461C267.365 35.112 266.053 34.04 264.053 34.04C261.973 34.04 260.661 35.176 260.661 36.584C260.661 39.816 265.781 38.824 265.781 40.552C265.781 41.16 265.221 41.608 264.165 41.608C263.157 41.608 262.469 41.016 262.405 40.296H260.517C260.597 41.896 262.085 43.144 264.197 43.144C266.277 43.144 267.573 42.024 267.573 40.536ZM273.256 35.576C274.616 35.576 275.688 36.44 275.72 37.8H270.84C271.032 36.408 272.024 35.576 273.256 35.576ZM277.384 40.376H275.416C275.08 41.064 274.456 41.608 273.336 41.608C271.992 41.608 270.952 40.728 270.824 39.272H277.56C277.608 38.968 277.624 38.68 277.624 38.376C277.624 35.784 275.848 34.04 273.336 34.04C270.728 34.04 268.936 35.816 268.936 38.584C268.936 41.352 270.808 43.144 273.336 43.144C275.496 43.144 276.888 41.912 277.384 40.376ZM278.811 38.552C278.811 41.272 280.651 43.144 282.971 43.144C284.411 43.144 285.467 42.472 286.027 41.672V43H287.867V31.16H286.027V35.416C285.355 34.584 284.139 34.04 282.987 34.04C280.651 34.04 278.811 35.832 278.811 38.552ZM286.027 38.584C286.027 40.488 284.731 41.56 283.355 41.56C281.995 41.56 280.683 40.456 280.683 38.552C280.683 36.648 281.995 35.624 283.355 35.624C284.731 35.624 286.027 36.696 286.027 38.584ZM294.419 43H296.243V31.16H294.419V43ZM298.638 43H300.462V34.184H298.638V43ZM299.566 33.016C300.206 33.016 300.718 32.504 300.718 31.848C300.718 31.192 300.206 30.68 299.566 30.68C298.91 30.68 298.398 31.192 298.398 31.848C298.398 32.504 298.91 33.016 299.566 33.016ZM309.432 40.536C309.336 37.352 304.36 38.344 304.36 36.568C304.36 35.976 304.872 35.576 305.848 35.576C306.84 35.576 307.432 36.104 307.496 36.872H309.32C309.224 35.112 307.912 34.04 305.912 34.04C303.832 34.04 302.52 35.176 302.52 36.584C302.52 39.816 307.64 38.824 307.64 40.552C307.64 41.16 307.08 41.608 306.024 41.608C305.016 41.608 304.328 41.016 304.264 40.296H302.376C302.456 41.896 303.944 43.144 306.056 43.144C308.136 43.144 309.432 42.024 309.432 40.536ZM311.691 40.552C311.691 42.344 312.667 43 314.235 43H315.675V41.48H314.555C313.787 41.48 313.531 41.208 313.531 40.552V35.672H315.675V34.184H313.531V31.992H311.691V34.184H310.651V35.672H311.691V40.552ZM321.068 35.576C322.428 35.576 323.5 36.44 323.532 37.8H318.652C318.844 36.408 319.836 35.576 321.068 35.576ZM325.196 40.376H323.228C322.892 41.064 322.268 41.608 321.148 41.608C319.804 41.608 318.764 40.728 318.636 39.272H325.372C325.42 38.968 325.436 38.68 325.436 38.376C325.436 35.784 323.66 34.04 321.148 34.04C318.54 34.04 316.748 35.816 316.748 38.584C316.748 41.352 318.62 43.144 321.148 43.144C323.308 43.144 324.7 41.912 325.196 40.376ZM333.487 43H335.295V37.8C335.295 35.336 333.743 34.04 331.679 34.04C330.623 34.04 329.647 34.472 329.055 35.192V34.184H327.231V43H329.055V38.072C329.055 36.456 329.935 35.624 331.279 35.624C332.607 35.624 333.487 36.456 333.487 38.072V43ZM337.622 43H339.446V34.184H337.622V43ZM338.55 33.016C339.19 33.016 339.702 32.504 339.702 31.848C339.702 31.192 339.19 30.68 338.55 30.68C337.894 30.68 337.382 31.192 337.382 31.848C337.382 32.504 337.894 33.016 338.55 33.016ZM348.097 43H349.905V37.8C349.905 35.336 348.353 34.04 346.289 34.04C345.233 34.04 344.257 34.472 343.665 35.192V34.184H341.841V43H343.665V38.072C343.665 36.456 344.545 35.624 345.889 35.624C347.217 35.624 348.097 36.456 348.097 38.072V43ZM351.623 38.552C351.623 41.272 353.463 43.144 355.783 43.144C357.223 43.144 358.279 42.424 358.839 41.672V43.144C358.839 44.904 357.783 45.768 356.375 45.768C355.111 45.768 354.135 45.144 353.863 44.232H352.055C352.279 46.184 354.023 47.352 356.375 47.352C359.127 47.352 360.679 45.544 360.679 43.144V34.184H358.839V35.464C358.295 34.712 357.223 34.04 355.783 34.04C353.463 34.04 351.623 35.832 351.623 38.552ZM358.839 38.584C358.839 40.488 357.543 41.56 356.167 41.56C354.807 41.56 353.495 40.456 353.495 38.552C353.495 36.648 354.807 35.624 356.167 35.624C357.543 35.624 358.839 36.696 358.839 38.584ZM364.963 41.944C364.963 41.288 364.451 40.776 363.811 40.776C363.155 40.776 362.643 41.288 362.643 41.944C362.643 42.6 363.155 43.112 363.811 43.112C364.451 43.112 364.963 42.6 364.963 41.944ZM372.915 37V33.368H374.931C376.355 33.368 376.995 34.04 376.995 35.192C376.995 36.312 376.355 37 374.931 37H372.915ZM378.867 35.192C378.867 33.384 377.571 31.88 374.931 31.88H371.091V43H372.915V38.488H374.931C377.827 38.488 378.867 36.776 378.867 35.192ZM379.998 38.552C379.998 41.272 381.838 43.144 384.126 43.144C385.598 43.144 386.654 42.44 387.214 41.688V43H389.054V34.184H387.214V35.464C386.67 34.744 385.646 34.04 384.158 34.04C381.838 34.04 379.998 35.832 379.998 38.552ZM387.214 38.584C387.214 40.488 385.918 41.56 384.542 41.56C383.182 41.56 381.87 40.456 381.87 38.552C381.87 36.648 383.182 35.624 384.542 35.624C385.918 35.624 387.214 36.696 387.214 38.584ZM393.274 38.36C393.274 36.488 394.106 35.928 395.45 35.928H395.914V34.04C394.666 34.04 393.786 34.584 393.274 35.464V34.184H391.45V43H393.274V38.36ZM397.591 43H399.415V39.208L402.679 43H405.143L401.079 38.6L405.143 34.184H402.615L399.415 38.04V31.16H397.591V43ZM409.998 38.552C409.998 41.272 411.838 43.144 414.158 43.144C415.598 43.144 416.654 42.424 417.214 41.672V43.144C417.214 44.904 416.158 45.768 414.75 45.768C413.486 45.768 412.51 45.144 412.238 44.232H410.43C410.654 46.184 412.398 47.352 414.75 47.352C417.502 47.352 419.054 45.544 419.054 43.144V34.184H417.214V35.464C416.67 34.712 415.598 34.04 414.158 34.04C411.838 34.04 409.998 35.832 409.998 38.552ZM417.214 38.584C417.214 40.488 415.918 41.56 414.542 41.56C413.182 41.56 411.87 40.456 411.87 38.552C411.87 36.648 413.182 35.624 414.542 35.624C415.918 35.624 417.214 36.696 417.214 38.584ZM420.842 38.552C420.842 41.272 422.682 43.144 424.97 43.144C426.442 43.144 427.498 42.44 428.058 41.688V43H429.898V34.184H428.058V35.464C427.514 34.744 426.49 34.04 425.002 34.04C422.682 34.04 420.842 35.832 420.842 38.552ZM428.058 38.584C428.058 40.488 426.762 41.56 425.386 41.56C424.026 41.56 422.714 40.456 422.714 38.552C422.714 36.648 424.026 35.624 425.386 35.624C426.762 35.624 428.058 36.696 428.058 38.584ZM432.582 40.552C432.582 42.344 433.558 43 435.126 43H436.566V41.48H435.446C434.678 41.48 434.422 41.208 434.422 40.552V35.672H436.566V34.184H434.422V31.992H432.582V34.184H431.542V35.672H432.582V40.552ZM441.959 35.576C443.319 35.576 444.391 36.44 444.423 37.8H439.543C439.735 36.408 440.727 35.576 441.959 35.576ZM446.087 40.376H444.119C443.783 41.064 443.159 41.608 442.039 41.608C440.695 41.608 439.655 40.728 439.527 39.272H446.263C446.311 38.968 446.327 38.68 446.327 38.376C446.327 35.784 444.551 34.04 442.039 34.04C439.431 34.04 437.639 35.816 437.639 38.584C437.639 41.352 439.511 43.144 442.039 43.144C444.199 43.144 445.591 41.912 446.087 40.376ZM7.776 70.536C7.68 67.352 2.704 68.344 2.704 66.568C2.704 65.976 3.216 65.576 4.192 65.576C5.184 65.576 5.776 66.104 5.84 66.872H7.664C7.568 65.112 6.256 64.04 4.256 64.04C2.176 64.04 0.864 65.176 0.864 66.584C0.864 69.816 5.984 68.824 5.984 70.552C5.984 71.16 5.424 71.608 4.368 71.608C3.36 71.608 2.672 71.016 2.608 70.296H0.72C0.8 71.896 2.288 73.144 4.4 73.144C6.48 73.144 7.776 72.024 7.776 70.536ZM13.4589 65.576C14.8189 65.576 15.8909 66.44 15.9229 67.8H11.0429C11.2349 66.408 12.2269 65.576 13.4589 65.576ZM17.5869 70.376H15.6189C15.2829 71.064 14.6589 71.608 13.5389 71.608C12.1949 71.608 11.1549 70.728 11.0269 69.272H17.7629C17.8109 68.968 17.8269 68.68 17.8269 68.376C17.8269 65.784 16.0509 64.04 13.5389 64.04C10.9309 64.04 9.13888 65.816 9.13888 68.584C9.13888 71.352 11.0109 73.144 13.5389 73.144C15.6989 73.144 17.0909 71.912 17.5869 70.376ZM19.6219 73H21.4459V61.16H19.6219V73ZM23.8406 73H25.6646V61.16H23.8406V73ZM32.5036 70.552C32.5036 72.344 33.4796 73 35.0476 73H36.4876V71.48H35.3676C34.5996 71.48 34.3436 71.208 34.3436 70.552V65.672H36.4876V64.184H34.3436V61.992H32.5036V64.184H31.4636V65.672H32.5036V70.552ZM38.1688 73H39.9928V68.072C39.9928 66.456 40.8728 65.624 42.2168 65.624C43.5448 65.624 44.4248 66.456 44.4248 68.072V73H46.2328V67.8C46.2328 65.336 44.6968 64.04 42.7288 64.04C41.5928 64.04 40.6008 64.472 39.9928 65.208V61.16H38.1688V73ZM52.2714 65.576C53.6314 65.576 54.7034 66.44 54.7354 67.8H49.8554C50.0474 66.408 51.0394 65.576 52.2714 65.576ZM56.3994 70.376H54.4314C54.0954 71.064 53.4714 71.608 52.3514 71.608C51.0074 71.608 49.9674 70.728 49.8394 69.272H56.5754C56.6234 68.968 56.6394 68.68 56.6394 68.376C56.6394 65.784 54.8634 64.04 52.3514 64.04C49.7434 64.04 47.9514 65.816 47.9514 68.584C47.9514 71.352 49.8234 73.144 52.3514 73.144C54.5114 73.144 55.9034 71.912 56.3994 70.376ZM61.9064 70.904L59.4264 64.184H57.3944L60.8664 72.856L59.0744 77.144H60.9624L66.3704 64.184H64.4824L61.9064 70.904ZM73.6151 73H75.5351L77.3111 66.488L79.0871 73H81.0071L83.7431 64.184H81.9511L80.1271 71.24L78.3351 64.184H76.4311L74.5591 71.272L72.7191 64.184H70.8631L73.6151 73ZM88.8183 65.576C90.1783 65.576 91.2503 66.44 91.2823 67.8H86.4023C86.5943 66.408 87.5863 65.576 88.8183 65.576ZM92.9462 70.376H90.9783C90.6423 71.064 90.0183 71.608 88.8983 71.608C87.5543 71.608 86.5143 70.728 86.3863 69.272H93.1223C93.1703 68.968 93.1863 68.68 93.1863 68.376C93.1863 65.784 91.4103 64.04 88.8983 64.04C86.2903 64.04 84.4983 65.816 84.4983 68.584C84.4983 71.352 86.3703 73.144 88.8983 73.144C91.0583 73.144 92.4503 71.912 92.9462 70.376ZM101.557 70.536C101.461 67.352 96.4853 68.344 96.4853 66.568C96.4853 65.976 96.9973 65.576 97.9733 65.576C98.9653 65.576 99.5573 66.104 99.6213 66.872H101.445C101.349 65.112 100.037 64.04 98.0373 64.04C95.9573 64.04 94.6453 65.176 94.6453 66.584C94.6453 69.816 99.7653 68.824 99.7653 70.552C99.7653 71.16 99.2053 71.608 98.1493 71.608C97.1413 71.608 96.4533 71.016 96.3893 70.296H94.5013C94.5813 71.896 96.0693 73.144 98.1813 73.144C100.261 73.144 101.557 72.024 101.557 70.536ZM103.816 70.552C103.816 72.344 104.792 73 106.36 73H107.8V71.48H106.68C105.912 71.48 105.656 71.208 105.656 70.552V65.672H107.8V64.184H105.656V61.992H103.816V64.184H102.776V65.672H103.816V70.552ZM113.638 73H115.462V68.072C115.462 66.456 116.342 65.624 117.686 65.624C119.014 65.624 119.894 66.456 119.894 68.072V73H121.702V67.8C121.702 65.336 120.166 64.04 118.198 64.04C117.062 64.04 116.07 64.472 115.462 65.208V61.16H113.638V73ZM123.42 68.552C123.42 71.272 125.26 73.144 127.548 73.144C129.02 73.144 130.076 72.44 130.636 71.688V73H132.476V64.184H130.636V65.464C130.092 64.744 129.068 64.04 127.58 64.04C125.26 64.04 123.42 65.832 123.42 68.552ZM130.636 68.584C130.636 70.488 129.34 71.56 127.964 71.56C126.604 71.56 125.292 70.456 125.292 68.552C125.292 66.648 126.604 65.624 127.964 65.624C129.34 65.624 130.636 66.696 130.636 68.584ZM136.696 68.36C136.696 66.488 137.528 65.928 138.872 65.928H139.336V64.04C138.088 64.04 137.208 64.584 136.696 65.464V64.184H134.872V73H136.696V68.36ZM140.405 68.552C140.405 71.272 142.245 73.144 144.565 73.144C146.005 73.144 147.061 72.472 147.621 71.672V73H149.461V61.16H147.621V65.416C146.949 64.584 145.733 64.04 144.581 64.04C142.245 64.04 140.405 65.832 140.405 68.552ZM147.621 68.584C147.621 70.488 146.325 71.56 144.949 71.56C143.589 71.56 142.277 70.456 142.277 68.552C142.277 66.648 143.589 65.624 144.949 65.624C146.325 65.624 147.621 66.696 147.621 68.584ZM156.237 73H158.077V65.672H159.709V64.184H158.077V63.56C158.077 62.552 158.461 62.168 159.581 62.168V60.648C157.277 60.648 156.237 61.528 156.237 63.56V64.184H155.197V65.672H156.237V73ZM169.725 68.584C169.725 65.816 167.741 64.04 165.229 64.04C162.717 64.04 160.733 65.816 160.733 68.584C160.733 71.352 162.637 73.144 165.149 73.144C167.677 73.144 169.725 71.352 169.725 68.584ZM162.589 68.584C162.589 66.584 163.821 65.624 165.197 65.624C166.557 65.624 167.853 66.584 167.853 68.584C167.853 70.584 166.509 71.56 165.149 71.56C163.773 71.56 162.589 70.584 162.589 68.584ZM173.352 68.36C173.352 66.488 174.184 65.928 175.528 65.928H175.992V64.04C174.744 64.04 173.864 64.584 173.352 65.464V64.184H171.528V73H173.352V68.36ZM182.113 70.552C182.113 72.344 183.089 73 184.657 73H186.097V71.48H184.977C184.209 71.48 183.953 71.208 183.953 70.552V65.672H186.097V64.184H183.953V61.992H182.113V64.184H181.073V65.672H182.113V70.552ZM187.778 73H189.602V68.072C189.602 66.456 190.482 65.624 191.826 65.624C193.154 65.624 194.034 66.456 194.034 68.072V73H195.842V67.8C195.842 65.336 194.306 64.04 192.338 64.04C191.202 64.04 190.21 64.472 189.602 65.208V61.16H187.778V73ZM201.881 65.576C203.241 65.576 204.313 66.44 204.345 67.8H199.465C199.657 66.408 200.649 65.576 201.881 65.576ZM206.009 70.376H204.041C203.705 71.064 203.081 71.608 201.961 71.608C200.617 71.608 199.577 70.728 199.449 69.272H206.185C206.233 68.968 206.249 68.68 206.249 68.376C206.249 65.784 204.473 64.04 201.961 64.04C199.353 64.04 197.561 65.816 197.561 68.584C197.561 71.352 199.433 73.144 201.961 73.144C204.121 73.144 205.513 71.912 206.009 70.376ZM209.932 71.944C209.932 71.288 209.42 70.776 208.78 70.776C208.124 70.776 207.612 71.288 207.612 71.944C207.612 72.6 208.124 73.112 208.78 73.112C209.42 73.112 209.932 72.6 209.932 71.944Z" fill="#5E6282"/>
</svg>
