<svg width="147" height="131" viewBox="0 0 147 131" fill="none" xmlns="http://www.w3.org/2000/svg">
<path d="M36.8052 59.9999C36.8052 69.9411 44.864 77.9999 54.8052 77.9999L81.8052 77.9999C84.5666 77.9999 86.8052 75.7614 86.8052 72.9999L86.8052 38.9999C86.8052 33.4771 82.328 28.9999 76.8052 28.9999L41.8052 28.9999C39.0437 28.9999 36.8052 31.2385 36.8052 33.9999L36.8052 59.9999Z" fill="#FFF1DA"/>
<path d="M85.2819 73.9487C83.9285 74.1927 82.6164 74.7055 81.4272 75.4546C78.3278 77.3548 76.5639 80.2023 77.4876 81.8142C78.4113 83.4261 81.6726 83.1915 84.7719 81.2914C85.978 80.5717 87.0426 79.6277 87.9002 78.5177C88.2976 77.9805 88.3555 77.289 88.0481 76.7543L86.8482 74.6603C86.5428 74.124 85.9282 73.8451 85.2819 73.9487Z" fill="#D5D6DB"/>
<path d="M77.4244 46.9536C76.443 47.1308 75.4915 47.5027 74.6291 48.046C72.3823 49.4235 71.1025 51.4882 71.7717 52.656C72.4409 53.8239 74.8066 53.6536 77.0532 52.2762C77.9277 51.7541 78.6996 51.0692 79.3215 50.2642C79.6094 49.8749 79.6512 49.3739 79.4284 48.9862L78.5595 47.47C78.3384 47.0812 77.893 46.8786 77.4244 46.9536Z" fill="#D5D6DB"/>
<path d="M64.5999 47.5268C64.3799 47.4906 64.1472 47.5387 63.9472 47.6615L58.6728 50.8921C58.2316 51.1614 58.0651 51.7148 58.3013 52.1283C58.3553 52.2231 58.4282 52.3053 58.5159 52.3704L71.9212 62.3761L89.5088 51.6036L64.5999 47.5268Z" fill="#029BC5"/>
<path d="M121.092 47.8575L72.7503 77.8112L43.9935 88.4604L29.2591 90.7901L27.566 87.7949L108.167 38.9079C110.569 37.4442 113.262 36.6088 115.974 36.4867C117.162 36.4399 118.339 36.5423 119.476 36.7911C120.485 37.0034 121.445 37.3619 122.328 37.8559C123.314 38.4149 125.17 38.5695 125.793 39.6139C125.795 39.6124 127.315 44.3379 121.092 47.8575V47.8575Z" fill="#E1E6E9"/>
<path d="M72.9601 72.7112L52.5988 106.677C52.3457 107.156 52.5148 107.715 52.9761 107.926C53.2592 108.056 53.6016 108.028 53.8858 107.852L59.1885 104.578C60.2084 103.948 61.1056 103.127 61.8247 102.167L101.71 54.1403L72.9601 72.7112Z" fill="#029BC5"/>
<path d="M20.0944 71.7645C19.7423 71.6249 19.328 71.6672 18.9823 71.8777L14.6414 74.5205C14.0499 74.8803 13.8277 75.6183 14.1449 76.1691C14.2053 76.2739 14.2828 76.3672 14.375 76.4456L26.9477 87.166L39.7389 79.5433L20.0944 71.7645Z" fill="#029BC5"/>
<path d="M30.8113 88.6174L24.3161 98.0689C24.2209 98.2047 24.248 98.3826 24.3766 98.4661C24.4694 98.5263 24.5942 98.5228 24.6942 98.457L28.7935 95.9238C28.8254 95.9042 28.854 95.8789 28.8775 95.8496L38.4102 83.9264L30.8113 88.6174Z" fill="#029BC5"/>
<path d="M118.881 36.9191C117.718 36.6682 116.515 36.5661 115.301 36.6144C114.155 38.262 113.44 40.1422 113.23 42.0672C113.22 42.4556 113.531 42.7513 113.924 42.7277C114.046 42.7203 114.167 42.6821 114.275 42.6165L121.796 37.994C120.893 37.4948 119.912 37.1329 118.881 36.9191Z" fill="#029BC5"/>
<path d="M102.332 45.5234L107.172 42.6284L111.926 50.7394L107.086 53.6344L102.332 45.5234Z" fill="#D5D6DB"/>
<path d="M99.1804 48.8257C98.5964 49.1759 98.377 49.8976 98.6909 50.4374L99.1994 51.3119C99.5328 51.8395 100.268 51.9684 100.841 51.6C101.387 51.249 101.594 50.5691 101.314 50.0438L100.805 49.1693C100.492 48.63 99.7645 48.476 99.1804 48.8257V48.8257Z" fill="#3A556A"/>
<path d="M94.7159 51.5981C94.1319 51.9484 93.9125 52.67 94.2264 53.2099L94.7349 54.0844C95.0683 54.6119 95.8033 54.7409 96.3767 54.3724C96.9224 54.0215 97.1292 53.3415 96.8494 52.8163L96.3408 51.9418C96.0269 51.4026 95.2997 51.2486 94.7159 51.5981V51.5981Z" fill="#3A556A"/>
<path d="M90.2501 54.3714C89.6667 54.7222 89.4481 55.443 89.7618 55.9823L90.2703 56.8569C90.6037 57.3844 91.3387 57.5134 91.9121 57.1449C92.4578 56.7939 92.6646 56.114 92.3848 55.5888L91.8762 54.7143C91.5623 54.1745 90.8344 54.021 90.2501 54.3714V54.3714Z" fill="#3A556A"/>
<path d="M85.7858 57.1438C85.2025 57.4946 84.9839 58.2154 85.2975 58.7548L85.8061 59.6293C86.1395 60.1568 86.8744 60.2858 87.4479 59.9173C87.9936 59.5664 88.2003 58.8865 87.9205 58.3612L87.412 57.4867C87.0978 56.947 86.3699 56.7935 85.7858 57.1438V57.1438Z" fill="#3A556A"/>
<path d="M81.3218 59.9163C80.7382 60.2672 80.5195 60.9881 80.8333 61.5275L81.3421 62.4021C81.6557 62.9413 82.3832 63.0947 82.967 62.7447C83.5508 62.3947 83.7698 61.6739 83.4562 61.1347L82.9474 60.26C82.6345 59.7204 81.9073 59.5663 81.3231 59.9156C81.3226 59.9159 81.3223 59.916 81.3218 59.9163Z" fill="#3A556A"/>
<path d="M76.8573 62.6888C76.2737 63.0396 76.0551 63.7605 76.3688 64.2999L76.8776 65.1746C77.1912 65.7138 77.9187 65.8671 78.5025 65.5171C79.0863 65.1671 79.3053 64.4463 78.9917 63.9071L78.4829 63.0325C78.17 62.4928 77.4428 62.3387 76.8586 62.688C76.8581 62.6883 76.8576 62.6886 76.8573 62.6888Z" fill="#3A556A"/>
<path d="M72.3927 65.4613C71.8091 65.8121 71.5905 66.533 71.9042 67.0724L72.413 67.9471C72.7273 68.4858 73.4552 68.638 74.0383 68.2875C74.6205 67.9376 74.839 67.2183 74.5268 66.6798L74.0181 65.8052C73.7045 65.2656 72.977 65.1116 72.3927 65.4613Z" fill="#3A556A"/>
<path d="M67.9281 68.2338C67.3445 68.5847 67.1259 69.3056 67.4396 69.845L67.9484 70.7196C68.2627 71.2584 68.9906 71.4106 69.5737 71.0601C70.1559 70.7101 70.3744 69.9908 70.0622 69.4523L69.5535 68.5777C69.2399 68.0381 68.5124 67.8841 67.9281 68.2338Z" fill="#3A556A"/>
<path d="M63.4639 71.0062C62.8803 71.3571 62.6616 72.078 62.9754 72.6174L63.4841 73.492C63.7985 74.0307 64.5263 74.183 65.1095 73.8324C65.6916 73.4825 65.9102 72.7632 65.598 72.2247L65.0892 71.3501C64.7755 70.8107 64.048 70.6567 63.4639 71.0062Z" fill="#3A556A"/>
<path d="M58.998 73.7795C58.4142 74.1295 58.1952 74.8503 58.5088 75.3895L58.5094 75.3906L59.0182 76.2653C59.3326 76.8041 60.0604 76.9563 60.6435 76.6058C61.2257 76.2558 61.4442 75.5365 61.132 74.998L60.6233 74.1233C60.3098 73.5837 59.5823 73.4298 58.998 73.7795Z" fill="#3A556A"/>
<path d="M54.5348 76.5512C53.951 76.9012 53.732 77.622 54.0457 78.1611L54.0463 78.1623L54.5551 79.0369C54.8694 79.5757 55.5973 79.7279 56.1804 79.3774C56.7626 79.0274 56.9812 78.3081 56.6689 77.7696L56.1602 76.895C55.8464 76.3556 55.1189 76.2016 54.5348 76.5512Z" fill="#3A556A"/>
</svg>
