<svg width="100" height="36" viewBox="0 0 100 36" fill="none" xmlns="http://www.w3.org/2000/svg">
<rect y="0.712158" width="100" height="35" rx="17.5" fill="#080809"/>
<path d="M21.7893 24.712C19.408 24.6983 17.4382 19.8373 17.4382 17.3617C17.4382 13.3178 20.4718 12.4325 21.641 12.4325C22.1678 12.4325 22.7304 12.6394 23.2266 12.8225C23.5736 12.9502 23.9325 13.0821 24.1321 13.0821C24.2516 13.0821 24.5331 12.9699 24.7817 12.8715C25.3118 12.6605 25.9714 12.3982 26.7395 12.3982C26.7409 12.3982 26.7427 12.3982 26.7441 12.3982C27.3176 12.3982 29.0567 12.5241 30.1022 14.0942L30.3471 14.4622L29.9947 14.7282C29.4911 15.1081 28.5724 15.8012 28.5724 17.174C28.5724 18.8 29.6129 19.4253 30.1128 19.7261C30.3334 19.8588 30.5618 19.9957 30.5618 20.2951C30.5618 20.4905 29.0018 24.6878 26.7363 24.6878C26.182 24.6878 25.7901 24.5211 25.4445 24.3742C25.0948 24.2254 24.7931 24.0973 24.2946 24.0973C24.0419 24.0973 23.7224 24.2167 23.3841 24.3435C22.9218 24.5161 22.3985 24.712 21.8048 24.712H21.7893Z" fill="white"/>
<path d="M26.9795 8.71216C27.0385 10.8395 25.5171 12.3154 23.9975 12.2228C23.7471 10.5251 25.5169 8.71216 26.9795 8.71216Z" fill="white"/>
<path d="M39.03 13.7123H40.08L38.652 9.51228H37.428L36 13.7123H37.05L37.26 13.0523H38.82L39.03 13.7123ZM37.548 12.1523L38.04 10.6103L38.532 12.1523H37.548Z" fill="white"/>
<path d="M42.2049 10.7123L41.5809 12.6143L40.9569 10.7123H39.9609L41.0709 13.7123H42.0909L43.2009 10.7123H42.2049Z" fill="white"/>
<path d="M45.592 10.7123V10.9943C45.394 10.7663 45.1 10.6283 44.698 10.6283C43.912 10.6283 43.264 11.3183 43.264 12.2123C43.264 13.1063 43.912 13.7963 44.698 13.7963C45.1 13.7963 45.394 13.6583 45.592 13.4303V13.7123H46.492V10.7123H45.592ZM44.878 12.9443C44.464 12.9443 44.164 12.6623 44.164 12.2123C44.164 11.7623 44.464 11.4803 44.878 11.4803C45.292 11.4803 45.592 11.7623 45.592 12.2123C45.592 12.6623 45.292 12.9443 44.878 12.9443Z" fill="white"/>
<path d="M47.1523 13.7123H48.0523V9.33228H47.1523V13.7123Z" fill="white"/>
<path d="M49.1609 10.4483C49.4549 10.4483 49.7009 10.2023 49.7009 9.90828C49.7009 9.61428 49.4549 9.36828 49.1609 9.36828C48.8669 9.36828 48.6209 9.61428 48.6209 9.90828C48.6209 10.2023 48.8669 10.4483 49.1609 10.4483ZM48.7109 13.7123H49.6109V10.7123H48.7109V13.7123Z" fill="white"/>
<path d="M52.0635 10.6283C51.6615 10.6283 51.3675 10.7663 51.1695 10.9943V9.51228H50.2695V13.7123H51.1695V13.4303C51.3675 13.6583 51.6615 13.7963 52.0635 13.7963C52.8495 13.7963 53.4975 13.1063 53.4975 12.2123C53.4975 11.3183 52.8495 10.6283 52.0635 10.6283ZM51.8835 12.9443C51.4695 12.9443 51.1695 12.6623 51.1695 12.2123C51.1695 11.7623 51.4695 11.4803 51.8835 11.4803C52.2975 11.4803 52.5975 11.7623 52.5975 12.2123C52.5975 12.6623 52.2975 12.9443 51.8835 12.9443Z" fill="white"/>
<path d="M54.0077 13.7123H54.9077V9.33228H54.0077V13.7123Z" fill="white"/>
<path d="M56.3703 12.5723H58.5003C58.5243 12.4583 58.5363 12.3383 58.5363 12.2123C58.5363 11.3063 57.8883 10.6283 57.0123 10.6283C56.0643 10.6283 55.4163 11.3183 55.4163 12.2123C55.4163 13.1063 56.0523 13.7963 57.0783 13.7963C57.6483 13.7963 58.0923 13.5863 58.3863 13.1783L57.6663 12.7643C57.5463 12.8963 57.3363 12.9923 57.0903 12.9923C56.7603 12.9923 56.4843 12.8843 56.3703 12.5723ZM56.3523 11.9003C56.4363 11.5943 56.6643 11.4263 57.0063 11.4263C57.2763 11.4263 57.5463 11.5523 57.6423 11.9003H56.3523Z" fill="white"/>
<path d="M61.9868 13.7963C62.8688 13.7963 63.5768 13.1063 63.5768 12.2123C63.5768 11.3183 62.8688 10.6283 61.9868 10.6283C61.1048 10.6283 60.3968 11.3183 60.3968 12.2123C60.3968 13.1063 61.1048 13.7963 61.9868 13.7963ZM61.9868 12.9203C61.5968 12.9203 61.2968 12.6383 61.2968 12.2123C61.2968 11.7863 61.5968 11.5043 61.9868 11.5043C62.3768 11.5043 62.6768 11.7863 62.6768 12.2123C62.6768 12.6383 62.3768 12.9203 61.9868 12.9203Z" fill="white"/>
<path d="M65.8439 10.6283C65.4479 10.6283 65.1479 10.7723 64.9859 10.9943V10.7123H64.0859V13.7123H64.9859V12.0743C64.9859 11.6483 65.2139 11.4563 65.5439 11.4563C65.8319 11.4563 66.0659 11.6303 66.0659 12.0023V13.7123H66.9659V11.8703C66.9659 11.0603 66.4499 10.6283 65.8439 10.6283Z" fill="white"/>
<path d="M70.8419 11.5763V10.7123H70.2239V9.87228L69.3239 10.1423V10.7123H68.8439V11.5763H69.3239V12.6383C69.3239 13.4783 69.6659 13.8323 70.8419 13.7123V12.8963C70.4459 12.9203 70.2239 12.8963 70.2239 12.6383V11.5763H70.8419Z" fill="white"/>
<path d="M73.1095 10.6283C72.7135 10.6283 72.4135 10.7723 72.2515 10.9943V9.51228H71.3515V13.7123H72.2515V12.0743C72.2515 11.6483 72.4795 11.4563 72.8095 11.4563C73.0975 11.4563 73.3315 11.6303 73.3315 12.0023V13.7123H74.2315V11.8703C74.2315 11.0603 73.7155 10.6283 73.1095 10.6283Z" fill="white"/>
<path d="M75.6535 12.5723H77.7835C77.8075 12.4583 77.8195 12.3383 77.8195 12.2123C77.8195 11.3063 77.1715 10.6283 76.2955 10.6283C75.3475 10.6283 74.6995 11.3183 74.6995 12.2123C74.6995 13.1063 75.3355 13.7963 76.3615 13.7963C76.9315 13.7963 77.3755 13.5863 77.6695 13.1783L76.9495 12.7643C76.8295 12.8963 76.6195 12.9923 76.3735 12.9923C76.0435 12.9923 75.7675 12.8843 75.6535 12.5723ZM75.6355 11.9003C75.7195 11.5943 75.9475 11.4263 76.2895 11.4263C76.5595 11.4263 76.8295 11.5523 76.9255 11.9003H75.6355Z" fill="white"/>
<path d="M41.05 24.7123H42.8L40.42 17.7123H38.38L36 24.7123H37.75L38.1 23.6123H40.7L41.05 24.7123ZM38.58 22.1123L39.4 19.5423L40.22 22.1123H38.58Z" fill="white"/>
<path d="M46.3369 19.5723C45.6669 19.5723 45.1769 19.8023 44.8469 20.1823V19.7123H43.3469V26.7123H44.8469V24.2423C45.1769 24.6223 45.6669 24.8523 46.3369 24.8523C47.6469 24.8523 48.7269 23.7023 48.7269 22.2123C48.7269 20.7223 47.6469 19.5723 46.3369 19.5723ZM46.0369 23.4323C45.3469 23.4323 44.8469 22.9623 44.8469 22.2123C44.8469 21.4623 45.3469 20.9923 46.0369 20.9923C46.7269 20.9923 47.2269 21.4623 47.2269 22.2123C47.2269 22.9623 46.7269 23.4323 46.0369 23.4323Z" fill="white"/>
<path d="M52.5673 19.5723C51.8973 19.5723 51.4073 19.8023 51.0773 20.1823V19.7123H49.5773V26.7123H51.0773V24.2423C51.4073 24.6223 51.8973 24.8523 52.5673 24.8523C53.8773 24.8523 54.9573 23.7023 54.9573 22.2123C54.9573 20.7223 53.8773 19.5723 52.5673 19.5723ZM52.2673 23.4323C51.5773 23.4323 51.0773 22.9623 51.0773 22.2123C51.0773 21.4623 51.5773 20.9923 52.2673 20.9923C52.9573 20.9923 53.4573 21.4623 53.4573 22.2123C53.4573 22.9623 52.9573 23.4323 52.2673 23.4323Z" fill="white"/>
<path d="M55.8078 24.7123H57.3078V17.4123H55.8078V24.7123Z" fill="white"/>
<path d="M59.7455 22.8123H63.2955C63.3355 22.6223 63.3555 22.4223 63.3555 22.2123C63.3555 20.7023 62.2755 19.5723 60.8155 19.5723C59.2355 19.5723 58.1555 20.7223 58.1555 22.2123C58.1555 23.7023 59.2155 24.8523 60.9255 24.8523C61.8755 24.8523 62.6155 24.5023 63.1055 23.8223L61.9055 23.1323C61.7055 23.3523 61.3555 23.5123 60.9455 23.5123C60.3955 23.5123 59.9355 23.3323 59.7455 22.8123ZM59.7155 21.6923C59.8555 21.1823 60.2355 20.9023 60.8055 20.9023C61.2555 20.9023 61.7055 21.1123 61.8655 21.6923H59.7155Z" fill="white"/>
<path d="M69.2062 24.8523C70.7262 24.8523 71.8063 24.0523 71.8063 22.7023C71.8063 21.2223 70.6163 20.8523 69.5563 20.5323C68.4663 20.2023 68.2962 19.9823 68.2962 19.6623C68.2962 19.3823 68.5462 19.1323 69.0462 19.1323C69.6862 19.1323 70.0162 19.4423 70.2562 19.9423L71.6063 19.1523C71.0963 18.1223 70.1963 17.5723 69.0462 17.5723C67.8363 17.5723 66.6963 18.3523 66.6963 19.7023C66.6963 21.0423 67.7162 21.5423 68.7562 21.8323C69.8062 22.1223 70.2062 22.2923 70.2062 22.7223C70.2062 22.9923 70.0162 23.2923 69.2562 23.2923C68.4662 23.2923 68.0363 22.9023 67.7862 22.3223L66.4062 23.1223C66.7962 24.1523 67.7362 24.8523 69.2062 24.8523Z" fill="white"/>
<path d="M75.3394 21.1523V19.7123H74.3094V18.3123L72.8094 18.7623V19.7123H72.0094V21.1523H72.8094V22.9223C72.8094 24.3223 73.3794 24.9123 75.3394 24.7123V23.3523C74.6794 23.3923 74.3094 23.3523 74.3094 22.9223V21.1523H75.3394Z" fill="white"/>
<path d="M78.491 24.8523C79.961 24.8523 81.141 23.7023 81.141 22.2123C81.141 20.7223 79.961 19.5723 78.491 19.5723C77.021 19.5723 75.841 20.7223 75.841 22.2123C75.841 23.7023 77.021 24.8523 78.491 24.8523ZM78.491 23.3923C77.841 23.3923 77.341 22.9223 77.341 22.2123C77.341 21.5023 77.841 21.0323 78.491 21.0323C79.141 21.0323 79.641 21.5023 79.641 22.2123C79.641 22.9223 79.141 23.3923 78.491 23.3923Z" fill="white"/>
<path d="M83.4895 20.6023V19.7123H81.9895V24.7123H83.4895V22.4523C83.4895 21.4623 84.3695 21.2123 84.9895 21.3123V19.6123C84.3595 19.6123 83.6895 19.9323 83.4895 20.6023Z" fill="white"/>
<path d="M86.8841 22.8123H90.4341C90.4741 22.6223 90.4941 22.4223 90.4941 22.2123C90.4941 20.7023 89.4141 19.5723 87.9541 19.5723C86.3741 19.5723 85.2941 20.7223 85.2941 22.2123C85.2941 23.7023 86.3541 24.8523 88.0641 24.8523C89.0141 24.8523 89.7541 24.5023 90.2441 23.8223L89.0441 23.1323C88.8441 23.3523 88.4941 23.5123 88.0841 23.5123C87.5341 23.5123 87.0741 23.3323 86.8841 22.8123ZM86.8541 21.6923C86.9941 21.1823 87.3741 20.9023 87.9441 20.9023C88.3941 20.9023 88.8441 21.1123 89.0041 21.6923H86.8541Z" fill="white"/>
</svg>
