<svg width="65" height="66" viewBox="0 0 65 66" fill="none" xmlns="http://www.w3.org/2000/svg">
<g filter="url(#filter0_d_108_73)">
<path fill-rule="evenodd" clip-rule="evenodd" d="M32.5 53.7122C44.9264 53.7122 55 43.6386 55 31.2122C55 18.7858 44.9264 8.71216 32.5 8.71216C20.0736 8.71216 10 18.7858 10 31.2122C10 43.6386 20.0736 53.7122 32.5 53.7122Z" fill="url(#paint0_angular_108_73)"/>
</g>
<g clip-path="url(#clip0_108_73)">
<path d="M38.6562 22.7122H27.3438C26.0516 22.7122 25 23.7637 25 25.0559V36.3684C25 37.6609 26.0516 38.7122 27.3438 38.7122H38.6562C39.9488 38.7122 41 37.6609 41 36.3684V25.0559C41 23.7637 39.9488 22.7122 38.6562 22.7122ZM40.0625 36.3684C40.0625 37.1437 39.4316 37.7747 38.6562 37.7747H27.3438C26.5684 37.7747 25.9375 37.1437 25.9375 36.3684V25.0559C25.9375 24.2806 26.5684 23.6497 27.3438 23.6497H38.6562C39.4316 23.6497 40.0625 24.2806 40.0625 25.0559V36.3684Z" fill="white"/>
<path d="M38.1562 24.6184C37.6394 24.6184 37.2188 25.039 37.2188 25.5559C37.2188 26.0728 37.6394 26.4934 38.1562 26.4934C38.6731 26.4934 39.0938 26.0728 39.0938 25.5559C39.0938 25.039 38.6731 24.6184 38.1562 24.6184Z" fill="white"/>
<path d="M33 26.4934C30.6737 26.4934 28.7812 28.3859 28.7812 30.7122C28.7812 33.0384 30.6737 34.9309 33 34.9309C35.3263 34.9309 37.2188 33.0384 37.2188 30.7122C37.2188 28.3859 35.3263 26.4934 33 26.4934ZM33 33.9934C31.1906 33.9934 29.7188 32.5215 29.7188 30.7122C29.7188 28.9028 31.1906 27.4309 33 27.4309C34.8094 27.4309 36.2812 28.9028 36.2812 30.7122C36.2812 32.5215 34.8094 33.9934 33 33.9934Z" fill="white"/>
</g>
<defs>
<filter id="filter0_d_108_73" x="0" y="0.712158" width="65" height="65" filterUnits="userSpaceOnUse" color-interpolation-filters="sRGB">
<feFlood flood-opacity="0" result="BackgroundImageFix"/>
<feColorMatrix in="SourceAlpha" type="matrix" values="0 0 0 0 0 0 0 0 0 0 0 0 0 0 0 0 0 0 127 0" result="hardAlpha"/>
<feOffset dy="2"/>
<feGaussianBlur stdDeviation="5"/>
<feColorMatrix type="matrix" values="0 0 0 0 0 0 0 0 0 0 0 0 0 0 0 0 0 0 0.1 0"/>
<feBlend mode="normal" in2="BackgroundImageFix" result="effect1_dropShadow_108_73"/>
<feBlend mode="normal" in="SourceGraphic" in2="effect1_dropShadow_108_73" result="shape"/>
</filter>
<radialGradient id="paint0_angular_108_73" cx="0" cy="0" r="1" gradientUnits="userSpaceOnUse" gradientTransform="translate(32.5 31.2122) rotate(90) scale(0.5)">
<stop stop-color="#B8D2F1"/>
<stop offset="0.166667" stop-color="#F289AA"/>
<stop offset="0.294697" stop-color="#C68BF0"/>
<stop offset="0.427083" stop-color="#D164DA"/>
<stop offset="0.614583" stop-color="#C963E8"/>
<stop offset="0.71875" stop-color="#BFC2E8"/>
<stop offset="0.802083" stop-color="#FFC999"/>
<stop offset="0.875" stop-color="#D0D8C9"/>
<stop offset="0.928149" stop-color="#BAD0F1"/>
<stop offset="0.997133" stop-color="#CED8CB"/>
<stop offset="1" stop-color="white" stop-opacity="0"/>
</radialGradient>
<clipPath id="clip0_108_73">
<rect width="16" height="16" fill="white" transform="translate(25 22.7122)"/>
</clipPath>
</defs>
</svg>
