<svg width="149" height="34" viewBox="0 0 149 34" fill="none" xmlns="http://www.w3.org/2000/svg">
<path d="M13.916 24.1762C13.916 26.7282 12.64 28.5762 9.956 28.5762C7.272 28.5762 6.04 26.7282 5.996 24.1762H0.936C0.936 29.7202 4.676 33.0202 9.956 33.0202C15.236 33.0202 18.976 29.7202 18.976 24.1762V2.13216H13.916V24.1762ZM25.4639 20.4802C25.4639 27.9602 30.5239 33.1082 36.8159 33.1082C40.8639 33.1082 43.7679 31.1722 45.3079 29.1042V32.7122H50.3679V8.46816H45.3079V11.9882C43.8119 10.0082 40.9959 8.07216 36.9039 8.07216C30.5239 8.07216 25.4639 13.0002 25.4639 20.4802ZM45.3079 20.5682C45.3079 25.8042 41.7439 28.7522 37.9599 28.7522C34.2199 28.7522 30.6119 25.7162 30.6119 20.4802C30.6119 15.2442 34.2199 12.4282 37.9599 12.4282C41.7439 12.4282 45.3079 15.3762 45.3079 20.5682ZM55.2843 20.4802C55.2843 27.9602 60.3443 33.1082 66.7243 33.1082C70.6843 33.1082 73.5883 31.2602 75.1283 29.0602V32.7122H80.1883V0.152158H75.1283V11.8562C73.2803 9.56816 69.9363 8.07216 66.7683 8.07216C60.3443 8.07216 55.2843 13.0002 55.2843 20.4802ZM75.1283 20.5682C75.1283 25.8042 71.5643 28.7522 67.7803 28.7522C64.0403 28.7522 60.4323 25.7162 60.4323 20.4802C60.4323 15.2442 64.0403 12.4282 67.7803 12.4282C71.5643 12.4282 75.1283 15.3762 75.1283 20.5682ZM109.877 20.5682C109.877 12.9562 104.421 8.07216 97.5126 8.07216C90.6046 8.07216 85.1486 12.9562 85.1486 20.5682C85.1486 28.1802 90.3846 33.1082 97.2926 33.1082C104.245 33.1082 109.877 28.1802 109.877 20.5682ZM90.2526 20.5682C90.2526 15.0682 93.6406 12.4282 97.4246 12.4282C101.165 12.4282 104.729 15.0682 104.729 20.5682C104.729 26.0682 101.033 28.7522 97.2926 28.7522C93.5086 28.7522 90.2526 26.0682 90.2526 20.5682ZM137.935 20.5682C137.935 12.9562 132.479 8.07216 125.571 8.07216C118.663 8.07216 113.207 12.9562 113.207 20.5682C113.207 28.1802 118.443 33.1082 125.351 33.1082C132.303 33.1082 137.935 28.1802 137.935 20.5682ZM118.311 20.5682C118.311 15.0682 121.699 12.4282 125.483 12.4282C129.223 12.4282 132.787 15.0682 132.787 20.5682C132.787 26.0682 129.091 28.7522 125.351 28.7522C121.567 28.7522 118.311 26.0682 118.311 20.5682ZM148.086 29.8082C148.086 28.0042 146.678 26.5962 144.918 26.5962C143.114 26.5962 141.706 28.0042 141.706 29.8082C141.706 31.6122 143.114 33.0202 144.918 33.0202C146.678 33.0202 148.086 31.6122 148.086 29.8082Z" fill="#181E4B"/>
</svg>
