<svg width="107" height="36" viewBox="0 0 107 36" fill="none" xmlns="http://www.w3.org/2000/svg">
<rect y="0.712158" width="107" height="35" rx="17.5" fill="#080809"/>
<g clip-path="url(#clip0_108_77)">
<path d="M28.5073 17.714L18.4638 27.3852C17.9935 27.0638 17.7142 26.5291 17.7192 25.9595V9.46842C17.7142 8.89879 17.9935 8.36415 18.4638 8.04272L28.5073 17.714Z" fill="#2196F3"/>
<path d="M32.0217 14.3358L28.5074 17.7139L18.4639 8.04269C18.5017 8.01336 18.5411 7.98608 18.5819 7.96096C19.1127 7.63924 19.7757 7.62885 20.3164 7.93372L32.0217 14.3358Z" fill="#4CAF50"/>
<path d="M36.2807 17.7138C36.2873 18.3569 35.9379 18.9509 35.3727 19.2576L32.0218 21.0919L28.5074 17.7138L32.0218 14.3357L35.3727 16.17C35.9379 16.4768 36.2873 17.0708 36.2807 17.7138Z" fill="#F0BB1F"/>
<path d="M32.0217 21.092L20.3164 27.4941C19.7745 27.7942 19.114 27.7838 18.5819 27.4668C18.5411 27.4417 18.5017 27.4144 18.4639 27.3851L28.5074 17.7139L32.0217 21.092Z" fill="#F15A2B"/>
</g>
<path d="M48.024 12.5922H45.216V13.7122H46.712C46.512 14.2482 46.024 14.5762 45.28 14.5762C44.192 14.5762 43.52 13.8802 43.52 12.9282C43.52 11.9442 44.224 11.2482 45.168 11.2482C45.8 11.2482 46.304 11.5362 46.536 11.9042L47.624 11.2802C47.152 10.5282 46.248 10.0002 45.176 10.0002C43.528 10.0002 42.24 11.2962 42.24 12.9202C42.24 14.5282 43.504 15.8242 45.264 15.8242C46.832 15.8242 48.024 14.7842 48.024 13.0722V12.5922Z" fill="white"/>
<path d="M49.6256 14.4802V13.4882H51.6256V12.2722H49.6256V11.3442H51.8256V10.1122H48.3456V15.7122H51.8656V14.4802H49.6256Z" fill="white"/>
<path d="M55.9478 10.1122H51.7878V11.3442H53.2278V15.7122H54.5078V11.3442H55.9478V10.1122Z" fill="white"/>
<path d="M57.7081 10.1122V15.7122H58.9881V10.1122H57.7081Z" fill="white"/>
<path d="M63.3103 10.1122H59.1503V11.3442H60.5903V15.7122H61.8703V11.3442H63.3103V10.1122Z" fill="white"/>
<path d="M67.7426 15.8242C69.3506 15.8242 70.6546 14.5602 70.6546 12.9122C70.6546 11.2642 69.3506 10.0002 67.7426 10.0002C66.1346 10.0002 64.8306 11.2642 64.8306 12.9122C64.8306 14.5602 66.1346 15.8242 67.7426 15.8242ZM67.7426 14.5762C66.8306 14.5762 66.1106 13.9122 66.1106 12.9122C66.1106 11.9122 66.8306 11.2482 67.7426 11.2482C68.6546 11.2482 69.3746 11.9122 69.3746 12.9122C69.3746 13.9122 68.6546 14.5762 67.7426 14.5762Z" fill="white"/>
<path d="M74.0953 10.1122V13.1522L71.9353 10.1122H70.9753V15.7122H72.2553V12.6722L74.4153 15.7122H75.3753V10.1122H74.0953Z" fill="white"/>
<path d="M48.024 22.1042V22.3202C48.024 23.0189 47.776 23.6082 47.28 24.0882C46.784 24.5629 46.1307 24.8002 45.32 24.8002C44.4667 24.8002 43.7627 24.5229 43.208 23.9682C42.6533 23.4082 42.376 22.7229 42.376 21.9122C42.376 21.1016 42.6507 20.4189 43.2 19.8642C43.7493 19.3042 44.4453 19.0242 45.288 19.0242C45.8 19.0242 46.2693 19.1469 46.696 19.3922C47.128 19.6376 47.4613 19.9656 47.696 20.3762L47.32 20.6002C47.1333 20.2482 46.856 19.9656 46.488 19.7522C46.1253 19.5389 45.7253 19.4322 45.288 19.4322C44.5627 19.4322 43.9653 19.6722 43.496 20.1522C43.032 20.6269 42.8 21.2136 42.8 21.9122C42.8 22.6109 43.0347 23.2002 43.504 23.6802C43.9733 24.1549 44.5787 24.3922 45.32 24.3922C45.976 24.3922 46.5067 24.2136 46.912 23.8562C47.3173 23.4989 47.544 23.0482 47.592 22.5042H45.216V22.1042H48.024Z" fill="white"/>
<path d="M53.7026 23.9602C53.1426 24.5202 52.4599 24.8002 51.6546 24.8002C50.8493 24.8002 50.1666 24.5202 49.6066 23.9602C49.0466 23.3949 48.7666 22.7122 48.7666 21.9122C48.7666 21.1122 49.0466 20.4322 49.6066 19.8722C50.1666 19.3069 50.8493 19.0242 51.6546 19.0242C52.4599 19.0242 53.1426 19.3069 53.7026 19.8722C54.2626 20.4322 54.5426 21.1122 54.5426 21.9122C54.5426 22.7122 54.2626 23.3949 53.7026 23.9602ZM49.9026 23.6722C50.3826 24.1522 50.9666 24.3922 51.6546 24.3922C52.3426 24.3922 52.9239 24.1522 53.3986 23.6722C53.8786 23.1869 54.1186 22.6002 54.1186 21.9122C54.1186 21.2242 53.8786 20.6402 53.3986 20.1602C52.9239 19.6749 52.3426 19.4322 51.6546 19.4322C50.9666 19.4322 50.3826 19.6749 49.9026 20.1602C49.4279 20.6402 49.1906 21.2242 49.1906 21.9122C49.1906 22.6002 49.4279 23.1869 49.9026 23.6722Z" fill="white"/>
<path d="M60.2339 23.9602C59.6739 24.5202 58.9912 24.8002 58.1859 24.8002C57.3805 24.8002 56.6979 24.5202 56.1379 23.9602C55.5779 23.3949 55.2979 22.7122 55.2979 21.9122C55.2979 21.1122 55.5779 20.4322 56.1379 19.8722C56.6979 19.3069 57.3805 19.0242 58.1859 19.0242C58.9912 19.0242 59.6739 19.3069 60.2339 19.8722C60.7939 20.4322 61.0739 21.1122 61.0739 21.9122C61.0739 22.7122 60.7939 23.3949 60.2339 23.9602ZM56.4339 23.6722C56.9139 24.1522 57.4979 24.3922 58.1859 24.3922C58.8739 24.3922 59.4552 24.1522 59.9299 23.6722C60.4099 23.1869 60.6499 22.6002 60.6499 21.9122C60.6499 21.2242 60.4099 20.6402 59.9299 20.1602C59.4552 19.6749 58.8739 19.4322 58.1859 19.4322C57.4979 19.4322 56.9139 19.6749 56.4339 20.1602C55.9592 20.6402 55.7219 21.2242 55.7219 21.9122C55.7219 22.6002 55.9592 23.1869 56.4339 23.6722Z" fill="white"/>
<path d="M67.4771 22.1042V22.3202C67.4771 23.0189 67.2291 23.6082 66.7331 24.0882C66.2371 24.5629 65.5838 24.8002 64.7731 24.8002C63.9198 24.8002 63.2158 24.5229 62.6611 23.9682C62.1064 23.4082 61.8291 22.7229 61.8291 21.9122C61.8291 21.1016 62.1038 20.4189 62.6531 19.8642C63.2024 19.3042 63.8984 19.0242 64.7411 19.0242C65.2531 19.0242 65.7224 19.1469 66.1491 19.3922C66.5811 19.6376 66.9144 19.9656 67.1491 20.3762L66.7731 20.6002C66.5864 20.2482 66.3091 19.9656 65.9411 19.7522C65.5784 19.5389 65.1784 19.4322 64.7411 19.4322C64.0158 19.4322 63.4184 19.6722 62.9491 20.1522C62.4851 20.6269 62.2531 21.2136 62.2531 21.9122C62.2531 22.6109 62.4878 23.2002 62.9571 23.6802C63.4264 24.1549 64.0318 24.3922 64.7731 24.3922C65.4291 24.3922 65.9598 24.2136 66.3651 23.8562C66.7705 23.4989 66.9971 23.0482 67.0451 22.5042H64.6691V22.1042H67.4771Z" fill="white"/>
<path d="M68.9637 24.3122H71.6037V24.7122H68.5397V19.1122H68.9637V24.3122Z" fill="white"/>
<path d="M72.9091 24.3122H75.7091V24.7122H72.4851V19.1122H75.6691V19.5122H72.9091V21.6882H75.4691V22.0882H72.9091V24.3122Z" fill="white"/>
<path d="M80.7875 19.1122C81.2888 19.1122 81.7048 19.2776 82.0355 19.6082C82.3662 19.9389 82.5315 20.3522 82.5315 20.8482C82.5315 21.3442 82.3662 21.7576 82.0355 22.0882C81.7048 22.4136 81.2888 22.5762 80.7875 22.5762H79.3075V24.7122H78.8835V19.1122H80.7875ZM80.7875 22.1762C81.1715 22.1762 81.4862 22.0509 81.7315 21.8002C81.9822 21.5496 82.1075 21.2322 82.1075 20.8482C82.1075 20.4589 81.9822 20.1389 81.7315 19.8882C81.4862 19.6376 81.1715 19.5122 80.7875 19.5122H79.3075V22.1762H80.7875Z" fill="white"/>
<path d="M84.0028 24.3122H86.6428V24.7122H83.5788V19.1122H84.0028V24.3122Z" fill="white"/>
<path d="M91.4484 24.7122L90.9044 23.2882H88.0964L87.5524 24.7122H87.1044L89.2804 19.1122H89.7284L91.8964 24.7122H91.4484ZM88.2564 22.8882H90.7524L89.5044 19.6322L88.2564 22.8882Z" fill="white"/>
<path d="M95.8809 19.1122L93.8409 22.4082V24.7122H93.4169V22.4082L91.3769 19.1122H91.8569L93.6329 22.0002L95.4009 19.1122H95.8809Z" fill="white"/>
<defs>
<clipPath id="clip0_108_77">
<rect width="20" height="20" fill="white" transform="translate(17 7.71216)"/>
</clipPath>
</defs>
</svg>
